<svg width="66" height="87" viewBox="0 0 66 87" fill="none" xmlns="http://www.w3.org/2000/svg">
<g id="Arrow 7" clip-path="url(#clip0_406_1500)">
<path id="Arrow 06" d="M47.4808 77.9362C49.5387 75.9999 51.5713 74.1605 53.8374 72.021C54.5829 73.724 54.1425 75.2127 53.2586 76.2198C50.607 79.2409 47.8588 82.2361 44.8709 84.9597C43.1687 86.5248 41.3103 85.7156 40.8133 83.4571C39.9324 79.6963 39.2703 75.8904 38.5115 72.0586C38.4653 71.8389 38.3835 71.5578 38.4698 71.4254C38.7183 70.87 39.0992 70.402 39.4444 69.8725C39.8774 70.196 40.5544 70.3775 40.7077 70.7814C41.2746 72.1774 41.6838 73.583 42.154 74.953C42.4248 75.6995 42.5989 76.42 43.4753 77.2251C43.8145 76.1239 44.2148 74.9872 44.554 73.886C50.5744 50.8273 40.876 27.1308 20.4836 14.6658C17.8454 13.0773 15.0704 11.8149 12.3459 10.3588C11.3937 9.84433 10.5024 9.29436 9.55007 8.77988C9.56495 8.5247 9.67655 8.29545 9.69143 8.04027C10.3476 7.9052 11.1154 7.54088 11.7314 7.75788C13.7982 8.36383 15.865 8.96979 17.8559 9.86641C37.6933 18.7097 50.4405 39.6472 49.4822 62.1452C49.2902 66.4478 48.335 70.7012 47.6951 74.9355C47.5642 75.8334 47.3008 76.644 47.0731 77.5159C47.0836 77.6742 47.2517 77.823 47.4808 77.9362Z" fill="#427137"/>
</g>
<defs>
<clipPath id="clip0_406_1500">
<rect width="84.2682" height="27.2047" fill="white" transform="translate(42.3623 86.5222) rotate(-120.179)"/>
</clipPath>
</defs>
</svg>
