<svg width="66" height="87" viewBox="0 0 66 87" fill="none" xmlns="http://www.w3.org/2000/svg">
<g id="Arrow 06" clip-path="url(#clip0_406_1498)">
<path id="Arrow 06_2" d="M18.3988 77.9362C16.3409 76 14.3084 74.1605 12.0422 72.021C11.2967 73.724 11.7372 75.2127 12.621 76.2198C15.2726 79.2409 18.0209 82.2361 21.0087 84.9597C22.7109 86.5248 24.5694 85.7156 25.0664 83.4571C25.9472 79.6963 26.6093 75.8904 27.3682 72.0586C27.4143 71.8389 27.4961 71.5578 27.4098 71.4254C27.1614 70.87 26.7804 70.402 26.4352 69.8725C26.0022 70.196 25.3252 70.3775 25.1719 70.7814C24.605 72.1774 24.1959 73.583 23.7257 74.953C23.4549 75.6995 23.2808 76.42 22.4044 77.2251C22.0651 76.1239 21.6648 74.9872 21.3256 73.886C15.3052 50.8273 25.0036 27.1308 45.3961 14.6658C48.0342 13.0773 50.8092 11.8149 53.5337 10.3588C54.486 9.84433 55.3773 9.29436 56.3296 8.77988C56.3147 8.5247 56.2031 8.29545 56.1882 8.04027C55.532 7.9052 54.7642 7.54088 54.1482 7.75788C52.0814 8.36383 50.0147 8.96979 48.0238 9.86641C28.1864 18.7097 15.4391 39.6472 16.3974 62.1452C16.5894 66.4478 17.5447 70.7012 18.1845 74.9355C18.3155 75.8334 18.5788 76.644 18.8065 77.5159C18.7961 77.6742 18.6279 77.823 18.3988 77.9362Z" fill="#427137"/>
</g>
<defs>
<clipPath id="clip0_406_1498">
<rect width="84.2682" height="27.2047" fill="white" transform="matrix(0.502709 -0.864456 -0.864456 -0.502709 23.5173 86.5222)"/>
</clipPath>
</defs>
</svg>
