<svg width="81" height="82" viewBox="0 0 81 82" fill="none" xmlns="http://www.w3.org/2000/svg">
<path fill-rule="evenodd" clip-rule="evenodd" d="M11.6502 17.0664C10.1457 17.0664 8.70287 17.6641 7.63904 18.7279C6.57521 19.7917 5.97756 21.2346 5.97756 22.7391V59.1109C5.97756 60.6153 6.57521 62.0582 7.63904 63.122C8.70287 64.1859 10.1457 64.7835 11.6502 64.7835H69.8451C71.3495 64.7835 72.7924 64.1859 73.8562 63.122C74.9201 62.0582 75.5177 60.6153 75.5177 59.1109V22.7391C75.5177 21.2346 74.9201 19.7917 73.8562 18.7279C72.7924 17.6641 71.3495 17.0664 69.8451 17.0664H11.6502ZM5.3739 16.4628C7.03849 14.7982 9.29614 13.863 11.6502 13.863H69.8451C72.1991 13.863 74.4568 14.7982 76.1214 16.4628C77.7859 18.1274 78.7211 20.385 78.7211 22.7391V59.1109C78.7211 61.4649 77.7859 63.7226 76.1214 65.3872C74.4568 67.0518 72.1991 67.9869 69.8451 67.9869H11.6502C9.29614 67.9869 7.03849 67.0518 5.3739 65.3872C3.70932 63.7226 2.77417 61.4649 2.77417 59.1109V22.7391C2.77417 20.385 3.70932 18.1274 5.3739 16.4628Z" fill="#EBFAE7"/>
<path fill-rule="evenodd" clip-rule="evenodd" d="M18.2199 39.7361C18.8744 40.3311 18.9227 41.3441 18.3276 41.9987L18.2913 42.0387C17.6962 42.6932 16.6833 42.7415 16.0287 42.1465C15.3741 41.5514 15.3259 40.5385 15.9209 39.8839L15.9573 39.8439C16.5523 39.1893 17.5653 39.1411 18.2199 39.7361ZM65.5032 39.7361C66.1577 40.3311 66.206 41.3441 65.6109 41.9987L65.5746 42.0387C64.9795 42.6932 63.9666 42.7415 63.312 42.1465C62.6575 41.5514 62.6092 40.5385 63.2042 39.8839L63.2406 39.8439C63.8356 39.1893 64.8486 39.1411 65.5032 39.7361Z" fill="#85E36E" stroke="#427137" stroke-linecap="round" stroke-linejoin="round"/>
<path d="M33.0321 48.6406C35.0784 50.6869 37.8538 51.8365 40.7477 51.8365C43.6416 51.8365 46.417 50.6869 48.4633 48.6406C50.5096 46.5943 51.6592 43.8189 51.6592 40.925C51.6592 38.031 50.5096 35.2556 48.4633 33.2093C46.417 31.163 43.6416 30.0134 40.7477 30.0134C37.8538 30.0134 35.0784 31.163 33.0321 33.2093C30.9858 35.2556 29.8362 38.031 29.8362 40.925C29.8362 43.8189 30.9858 46.5943 33.0321 48.6406Z" fill="#85E36E" stroke="#427137" stroke-linecap="round" stroke-linejoin="round"/>
<path d="M42.238 40.3485H39.2574C38.8006 40.3485 38.3626 40.173 38.0397 39.8606C37.7167 39.5483 37.5353 39.1246 37.5353 38.6828C37.5353 38.241 37.7167 37.8173 38.0397 37.5049C38.3626 37.1925 38.8006 37.017 39.2574 37.017H44.0263V35.8638H41.4928V33.7175H40.3006V35.8638H39.2574C38.4844 35.8638 37.7432 36.1608 37.1966 36.6895C36.6501 37.2181 36.343 37.9351 36.343 38.6828C36.343 39.4304 36.6501 40.1474 37.1966 40.6761C37.7432 41.2048 38.4844 41.5018 39.2574 41.5018H42.238C42.6945 41.5023 43.1323 41.6779 43.4551 41.9902C43.778 42.3025 43.9596 42.7259 43.9601 43.1675V43.2957C43.9596 43.7373 43.778 44.1607 43.4551 44.473C43.1323 44.7853 42.6945 44.9609 42.238 44.9614H37.193V46.1146H40.3006V48.1328H41.4928V46.1146H42.238C43.0106 46.1138 43.7514 45.8165 44.2978 45.288C44.8441 44.7596 45.1515 44.043 45.1523 43.2957V43.1675C45.1515 42.4201 44.8441 41.7036 44.2978 41.1751C43.7514 40.6466 43.0106 40.3494 42.238 40.3485Z" fill="#EBFAE7"/>
</svg>
