<svg width="166" height="32" viewBox="0 0 166 32" fill="none" xmlns="http://www.w3.org/2000/svg">
<g clip-path="url(#clip0_734_419)">
<path d="M14.2716 4.14352C14.6583 2.95356 16.3417 2.95356 16.7284 4.14352L18.6903 10.1807C18.8632 10.7128 19.3591 11.0731 19.9187 11.0731L26.2665 11.0734C27.5178 11.0734 28.038 12.6745 27.0258 13.41L21.8903 17.1414C21.4377 17.4703 21.2483 18.0533 21.4211 18.5854L23.3825 24.6227C23.7691 25.8127 22.4072 26.8022 21.3949 26.0668L16.2592 22.3358C15.8065 22.0069 15.1935 22.0069 14.7408 22.3358L9.60512 26.0668C8.59284 26.8022 7.23087 25.8127 7.61748 24.6227L9.57885 18.5854C9.75174 18.0533 9.56232 17.4703 9.10965 17.1414L3.97424 13.41C2.96201 12.6745 3.48224 11.0734 4.73345 11.0734L11.0813 11.0731C11.6409 11.0731 12.1368 10.7128 12.3097 10.1807L14.2716 4.14352Z" fill="#FFBF00"/>
</g>
<g clip-path="url(#clip1_734_419)">
<path d="M47.8549 4.14352C48.2416 2.95356 49.9251 2.95356 50.3118 4.14352L52.2736 10.1807C52.4466 10.7128 52.9425 11.0731 53.502 11.0731L59.8499 11.0734C61.1011 11.0734 61.6214 12.6745 60.6091 13.41L55.4737 17.1414C55.021 17.4703 54.8316 18.0533 55.0045 18.5854L56.9659 24.6227C57.3525 25.8127 55.9905 26.8022 54.9783 26.0668L49.8426 22.3358C49.3899 22.0069 48.7769 22.0069 48.3242 22.3358L43.1885 26.0668C42.1762 26.8022 40.8142 25.8127 41.2008 24.6227L43.1622 18.5854C43.3351 18.0533 43.1457 17.4703 42.693 17.1414L37.5576 13.41C36.5454 12.6745 37.0656 11.0734 38.3168 11.0734L44.6647 11.0731C45.2243 11.0731 45.7202 10.7128 45.8931 10.1807L47.8549 4.14352Z" fill="#FFBF00"/>
</g>
<g clip-path="url(#clip2_734_419)">
<path d="M81.4382 4.14352C81.8249 2.95356 83.5084 2.95356 83.8951 4.14352L85.8569 10.1807C86.0298 10.7128 86.5257 11.0731 87.0853 11.0731L93.4332 11.0734C94.6844 11.0734 95.2046 12.6745 94.1924 13.41L89.057 17.1414C88.6043 17.4703 88.4149 18.0533 88.5878 18.5854L90.5492 24.6227C90.9358 25.8127 89.5738 26.8022 88.5615 26.0668L83.4258 22.3358C82.9731 22.0069 82.3601 22.0069 81.9074 22.3358L76.7717 26.0668C75.7595 26.8022 74.3975 25.8127 74.7841 24.6227L76.7455 18.5854C76.9184 18.0533 76.729 17.4703 76.2763 17.1414L71.1409 13.41C70.1286 12.6745 70.6489 11.0734 71.9001 11.0734L78.248 11.0731C78.8075 11.0731 79.3034 10.7128 79.4764 10.1807L81.4382 4.14352Z" fill="#FFBF00"/>
</g>
<g clip-path="url(#clip3_734_419)">
<path d="M115.022 4.14352C115.408 2.95356 117.092 2.95356 117.478 4.14352L119.44 10.1807C119.613 10.7128 120.109 11.0731 120.669 11.0731L127.017 11.0734C128.268 11.0734 128.788 12.6745 127.776 13.41L122.64 17.1414C122.188 17.4703 121.998 18.0533 122.171 18.5854L124.133 24.6227C124.519 25.8127 123.157 26.8022 122.145 26.0668L117.009 22.3358C116.556 22.0069 115.944 22.0069 115.491 22.3358L110.355 26.0668C109.343 26.8022 107.981 25.8127 108.367 24.6227L110.329 18.5854C110.502 18.0533 110.312 17.4703 109.86 17.1414L104.724 13.41C103.712 12.6745 104.232 11.0734 105.483 11.0734L111.831 11.0731C112.391 11.0731 112.887 10.7128 113.06 10.1807L115.022 4.14352Z" fill="#FFBF00"/>
</g>
<g clip-path="url(#clip4_734_419)">
<path d="M148.605 4.14352C148.992 2.95356 150.675 2.95356 151.062 4.14352L153.024 10.1807C153.196 10.7128 153.692 11.0731 154.252 11.0731L160.6 11.0734C161.851 11.0734 162.371 12.6745 161.359 13.41L156.224 17.1414C155.771 17.4703 155.582 18.0533 155.754 18.5854L157.716 24.6227C158.102 25.8127 156.74 26.8022 155.728 26.0668L150.592 22.3358C150.14 22.0069 149.527 22.0069 149.074 22.3358L143.938 26.0668C142.926 26.8022 141.564 25.8127 141.951 24.6227L143.912 18.5854C144.085 18.0533 143.896 17.4703 143.443 17.1414L138.307 13.41C137.295 12.6745 137.815 11.0734 139.067 11.0734L145.415 11.0731C145.974 11.0731 146.47 10.7128 146.643 10.1807L148.605 4.14352Z" fill="#FFBF00"/>
</g>
<defs>
<clipPath id="clip0_734_419">
<rect width="31" height="31" fill="white" transform="translate(0 0.363281)"/>
</clipPath>
<clipPath id="clip1_734_419">
<rect width="31" height="31" fill="white" transform="translate(33.5834 0.363281)"/>
</clipPath>
<clipPath id="clip2_734_419">
<rect width="31" height="31" fill="white" transform="translate(67.1666 0.363281)"/>
</clipPath>
<clipPath id="clip3_734_419">
<rect width="31" height="31" fill="white" transform="translate(100.75 0.363281)"/>
</clipPath>
<clipPath id="clip4_734_419">
<rect width="31" height="31" fill="white" transform="translate(134.333 0.363281)"/>
</clipPath>
</defs>
</svg>
