<svg width="80" height="81" viewBox="0 0 80 81" fill="none" xmlns="http://www.w3.org/2000/svg">
<path opacity="0.3" d="M63.3334 32.0297L51.6667 20.363C51.6667 18.1963 51.9667 16.063 52.5334 13.9963C49.3 14.8297 46.6667 17.2297 45.5667 20.363H25C18.5667 20.363 13.3334 25.5963 13.3334 32.0297C13.3334 38.2963 17.4 54.1963 20.0334 63.6963H26.6667V57.0297H46.6667V63.6963H53.3667L58.5334 46.5297L66.6667 43.7963V32.0297H63.3334ZM43.3334 30.363H26.6667V23.6963H43.3334V30.363ZM53.3334 37.0297C51.5 37.0297 50 35.5297 50 33.6963C50 31.863 51.5 30.363 53.3334 30.363C55.1667 30.363 56.6667 31.863 56.6667 33.6963C56.6667 35.5297 55.1667 37.0297 53.3334 37.0297Z" fill="#85E36E"/>
<path d="M50 33.6963C50 31.863 51.5 30.363 53.3333 30.363C55.1666 30.363 56.6666 31.863 56.6666 33.6963C56.6666 35.5297 55.1666 37.0297 53.3333 37.0297C51.5 37.0297 50 35.5297 50 33.6963ZM26.6666 30.363H43.3333V23.6963H26.6666V30.363ZM73.3333 25.363V48.5963L63.9333 51.7297L58.3333 70.363H40V63.6963H33.3333V70.363H15C15 70.363 6.66663 42.163 6.66663 32.0297C6.66663 21.8963 14.8666 13.6963 25 13.6963H41.6666C44.7 9.663 49.5333 7.02966 55 7.02966C55.8237 7.02984 56.6346 7.2338 57.3604 7.62337C58.0862 8.01295 58.7043 8.57603 59.1597 9.26243C59.6152 9.94884 59.8937 10.7373 59.9705 11.5574C60.0473 12.3776 59.92 13.204 59.6 13.963C59.1333 15.0963 58.7333 16.3963 58.5333 17.7963L66.1 25.363H73.3333ZM66.6666 32.0297H63.3333L51.6666 20.363C51.6666 18.1963 51.9666 16.063 52.5333 13.9963C49.3 14.8297 46.6666 17.2297 45.5666 20.363H25C18.5666 20.363 13.3333 25.5963 13.3333 32.0297C13.3333 38.2963 17.4 54.1963 20.0333 63.6963H26.6666V57.0297H46.6666V63.6963H53.3666L58.5333 46.5297L66.6666 43.7963V32.0297Z" fill="#427137"/>
</svg>
