<svg width="81" height="81" viewBox="0 0 81 81" fill="none" xmlns="http://www.w3.org/2000/svg">
<path opacity="0.3" d="M40.3334 13.6964C25.6001 13.6964 13.6667 25.6297 13.6667 40.3631C13.6667 55.0964 25.6001 67.0297 40.3334 67.0297C55.0667 67.0297 67.0001 55.0964 67.0001 40.3631C67.0001 25.6297 55.0667 13.6964 40.3334 13.6964ZM52.0001 27.0297C54.7667 27.0297 57.0001 29.2631 57.0001 32.0297C57.0001 34.7964 54.7667 37.0297 52.0001 37.0297C49.2334 37.0297 47.0001 34.7964 47.0001 32.0297C47.0001 29.2631 49.2334 27.0297 52.0001 27.0297ZM28.6667 27.0297C31.4334 27.0297 33.6667 29.2631 33.6667 32.0297C33.6667 34.7964 31.4334 37.0297 28.6667 37.0297C25.9001 37.0297 23.6667 34.7964 23.6667 32.0297C23.6667 29.2631 25.9001 27.0297 28.6667 27.0297ZM40.3334 58.6964C32.5667 58.6964 25.9667 53.8297 23.3001 47.0297H57.3667C54.7001 53.8297 48.1001 58.6964 40.3334 58.6964Z" fill="#85E36E"/>
<path d="M28.6667 37.0297C31.4282 37.0297 33.6667 34.7911 33.6667 32.0297C33.6667 29.2682 31.4282 27.0297 28.6667 27.0297C25.9053 27.0297 23.6667 29.2682 23.6667 32.0297C23.6667 34.7911 25.9053 37.0297 28.6667 37.0297Z" fill="#427137"/>
<path d="M40.3334 58.6963C48.1 58.6963 54.7001 53.8297 57.3667 47.0297H23.3C25.9667 53.8297 32.5667 58.6963 40.3334 58.6963Z" fill="#427137"/>
<path d="M52.0002 37.0297C54.7617 37.0297 57.0002 34.7911 57.0002 32.0297C57.0002 29.2682 54.7617 27.0297 52.0002 27.0297C49.2388 27.0297 47.0002 29.2682 47.0002 32.0297C47.0002 34.7911 49.2388 37.0297 52.0002 37.0297Z" fill="#427137"/>
<path d="M40.3002 7.02966C21.9002 7.02966 7.00024 21.963 7.00024 40.363C7.00024 58.763 21.9002 73.6963 40.3002 73.6963C58.7336 73.6963 73.6669 58.763 73.6669 40.363C73.6669 21.963 58.7336 7.02966 40.3002 7.02966ZM40.3336 67.0297C25.6002 67.0297 13.6669 55.0963 13.6669 40.363C13.6669 25.6297 25.6002 13.6963 40.3336 13.6963C55.0669 13.6963 67.0002 25.6297 67.0002 40.363C67.0002 55.0963 55.0669 67.0297 40.3336 67.0297Z" fill="#427137"/>
</svg>
