<svg width="81" height="81" viewBox="0 0 81 81" fill="none" xmlns="http://www.w3.org/2000/svg">
<path opacity="0.3" d="M27.3334 17.0297H34.0001V27.0297H27.3334V17.0297ZM27.3334 40.3631H34.0001V57.0297H27.3334V40.3631ZM20.6667 67.0297H60.6667V36.9631H20.6667V67.0297ZM27.3334 40.3631H34.0001V57.0297H27.3334V40.3631ZM20.6667 30.3631H60.6667V13.6964H20.6667V30.3631ZM27.3334 17.0297H34.0001V27.0297H27.3334V17.0297Z" fill="#85E36E"/>
<path d="M60.6667 7.063L20.6667 7.02966C18.8986 7.02966 17.2029 7.73204 15.9526 8.98228C14.7024 10.2325 14 11.9282 14 13.6963V67.0297C14 70.6963 17 73.6963 20.6667 73.6963H60.6667C64.3333 73.6963 67.3333 70.6963 67.3333 67.0297V13.6963C67.3333 9.99633 64.3333 7.063 60.6667 7.063ZM60.6667 67.0297H20.6667V36.963H60.6667V67.0297ZM60.6667 30.363H20.6667V13.6963H60.6667V30.363ZM27.3333 17.0297H34V27.0297H27.3333V17.0297ZM27.3333 40.363H34V57.0297H27.3333V40.363Z" fill="#427137"/>
</svg>
