<svg width="24" height="25" viewBox="0 0 24 25" fill="none" xmlns="http://www.w3.org/2000/svg">
<path d="M21.75 7.11328V17.6133C21.75 18.8559 20.7426 19.8633 19.5 19.8633H4.5C3.25736 19.8633 2.25 18.8559 2.25 17.6133V7.11328M21.75 7.11328C21.75 5.87064 20.7426 4.86328 19.5 4.86328H4.5C3.25736 4.86328 2.25 5.87064 2.25 7.11328M21.75 7.11328V7.35599C21.75 8.13733 21.3447 8.86273 20.6792 9.27222L13.1792 13.8876C12.4561 14.3326 11.5439 14.3326 10.8208 13.8876L3.32078 9.27222C2.65535 8.86273 2.25 8.13733 2.25 7.35599V7.11328" stroke="#020617" stroke-width="1.5" stroke-linecap="round" stroke-linejoin="round"/>
</svg>
