<svg width="24" height="25" viewBox="0 0 24 25" fill="none" xmlns="http://www.w3.org/2000/svg">
<path d="M2.25 7.11328C2.25 15.3976 8.96573 22.1133 17.25 22.1133H19.5C20.7426 22.1133 21.75 21.1059 21.75 19.8633V18.4917C21.75 17.9754 21.3987 17.5254 20.8979 17.4002L16.4747 16.2944C16.0355 16.1847 15.5734 16.3488 15.3018 16.7109L14.3316 18.0045C14.05 18.3799 13.563 18.5459 13.1223 18.3845C9.81539 17.1731 7.19015 14.5479 5.97876 11.2409C5.81734 10.8003 5.98336 10.3133 6.3588 10.0317L7.65242 9.06146C8.01453 8.78988 8.17861 8.32773 8.06883 7.88861L6.96304 3.46543C6.83783 2.96462 6.38785 2.61328 5.87163 2.61328H4.5C3.25736 2.61328 2.25 3.62064 2.25 4.86328V7.11328Z" stroke="#020617" stroke-width="1.5" stroke-linecap="round" stroke-linejoin="round"/>
</svg>
