<svg width="81" height="82" viewBox="0 0 81 82" fill="none" xmlns="http://www.w3.org/2000/svg">
<path d="M11.5613 11.4904L11.5616 11.4901C13.0469 10.0278 15.0049 9.26832 17.9162 8.88313C20.8411 8.49615 24.6521 8.49512 29.799 8.49512H35.2437C40.3906 8.49512 44.2016 8.49615 47.1265 8.88313C50.0379 9.26832 51.9959 10.0278 53.4811 11.4901L53.4814 11.4904C54.9668 12.9503 55.7372 14.8731 56.1283 17.7332C56.5214 20.6085 56.5225 24.3556 56.5225 29.4193V40.1315C56.5225 45.1953 56.5214 48.9423 56.1283 51.8176C55.7372 54.6777 54.9668 56.6005 53.4814 58.0604L53.4811 58.0607C51.9959 59.523 50.0379 60.2825 47.1265 60.6677C44.2016 61.0547 40.3906 61.0557 35.2437 61.0557H29.799C24.6521 61.0557 20.8411 61.0547 17.9162 60.6677C15.0049 60.2825 13.0469 59.523 11.5616 58.0607L11.5613 58.0604C10.076 56.6005 9.30551 54.6777 8.91448 51.8176C8.52136 48.9423 8.52026 45.1953 8.52026 40.1315V29.4193C8.52026 24.3556 8.52136 20.6085 8.91448 17.7332C9.30551 14.8731 10.076 12.9503 11.5613 11.4904Z" fill="#85E36E" stroke="#427137"/>
<path fill-rule="evenodd" clip-rule="evenodd" d="M19.416 29.3883C19.416 28.8526 19.634 28.3387 20.0221 27.9599C20.4101 27.581 20.9365 27.3682 21.4853 27.3682H43.5573C44.1061 27.3682 44.6324 27.581 45.0204 27.9599C45.4085 28.3387 45.6265 28.8526 45.6265 29.3883C45.6265 29.9241 45.4085 30.438 45.0204 30.8168C44.6324 31.1957 44.1061 31.4085 43.5573 31.4085H21.4853C20.9365 31.4085 20.4101 31.1957 20.0221 30.8168C19.634 30.438 19.416 29.9241 19.416 29.3883ZM19.416 40.1626C19.416 39.6268 19.634 39.113 20.0221 38.7341C20.4101 38.3553 20.9365 38.1424 21.4853 38.1424H35.2803C35.8291 38.1424 36.3554 38.3553 36.7434 38.7341C37.1315 39.113 37.3495 39.6268 37.3495 40.1626C37.3495 40.6984 37.1315 41.2122 36.7434 41.5911C36.3554 41.97 35.8291 42.1828 35.2803 42.1828H21.4853C20.9365 42.1828 20.4101 41.97 20.0221 41.5911C19.634 41.2122 19.416 40.6984 19.416 40.1626Z" fill="#EBFAE7"/>
<path fill-rule="evenodd" clip-rule="evenodd" d="M60.6831 73.3884C62.3006 73.3884 63.9022 73.0698 65.3966 72.4508C66.8909 71.8319 68.2487 70.9246 69.3924 69.7809C70.5362 68.6371 71.4434 67.2793 72.0624 65.785C72.6814 64.2906 73 62.689 73 61.0715C73 59.454 72.6814 57.8524 72.0624 56.3581C71.4434 54.8637 70.5362 53.5059 69.3924 52.3622C68.2487 51.2184 66.8909 50.3112 65.3966 49.6922C63.9022 49.0732 62.3006 48.7546 60.6831 48.7546C57.4165 48.7546 54.2836 50.0523 51.9737 52.3622C49.6639 54.672 48.3662 57.8049 48.3662 61.0715C48.3662 64.3382 49.6639 67.471 51.9737 69.7809C54.2836 72.0907 57.4165 73.3884 60.6831 73.3884ZM60.3656 66.053L67.2083 57.8418L65.1062 56.09L59.2215 63.1503L56.1765 60.104L54.2414 62.0391L58.347 66.1447L59.4062 67.204L60.3656 66.053Z" fill="#EBFAE7"/>
</svg>
