<svg width="81" height="82" viewBox="0 0 81 82" fill="none" xmlns="http://www.w3.org/2000/svg">
<path d="M8.5 14.7515C8.5 11.2062 11.537 8.5 15.0714 8.5H66.9286C70.4673 8.5 73.5 11.2058 73.5 14.7562V41.2485C73.5 44.794 70.4675 47.5 66.9286 47.5H15.0714C11.5372 47.5 8.5 44.7893 8.5 41.2485V14.7515ZM41 19.0734C39.8184 19.0734 38.6483 19.3041 37.5565 19.7523C36.4646 20.2006 35.4722 20.8577 34.6361 21.6864C33.7999 22.5151 33.1364 23.4991 32.6836 24.5825C32.2309 25.6658 31.9978 26.8271 31.9978 28C31.9978 29.1729 32.2309 30.3342 32.6836 31.4175C33.1364 32.5009 33.7999 33.4849 34.6361 34.3136C35.4722 35.1423 36.4646 35.7994 37.5565 36.2477C38.6483 36.6959 39.8184 36.9266 41 36.9266C43.3861 36.9266 45.6754 35.9872 47.3639 34.3136C49.0527 32.6399 50.0022 30.3689 50.0022 28C50.0022 25.6311 49.0527 23.3601 47.3639 21.6864C45.6754 20.0128 43.3861 19.0734 41 19.0734ZM23.9503 31.8746C24.7094 31.1222 25.1367 30.1009 25.1367 29.0349C25.1367 27.969 24.7094 26.9476 23.9503 26.1953C23.1914 25.4431 22.163 25.0213 21.0916 25.0213C20.0202 25.0213 18.9918 25.4431 18.2328 26.1953C17.4737 26.9476 17.0464 27.969 17.0464 29.0349C17.0464 30.1009 17.4737 31.1222 18.2328 31.8746C18.9918 32.6267 20.0202 33.0485 21.0916 33.0485C22.163 33.0485 23.1914 32.6267 23.9503 31.8746ZM60.9084 33.0485C61.9798 33.0485 63.0082 32.6267 63.7672 31.8746C64.5263 31.1222 64.9536 30.1009 64.9536 29.0349C64.9536 27.969 64.5263 26.9476 63.7672 26.1953C63.0082 25.4431 61.9798 25.0213 60.9084 25.0213C59.837 25.0213 58.8086 25.4431 58.0497 26.1953C57.2906 26.9476 56.8633 27.969 56.8633 29.0349C56.8633 30.1009 57.2906 31.1222 58.0497 31.8746C58.8086 32.6267 59.837 33.0485 60.9084 33.0485Z" fill="#85E36E" stroke="#427137"/>
<path d="M14.0399 55.0571C13.3741 55.734 13 56.652 13 57.6092C13 58.5665 13.3693 59.4845 14.0352 60.1614C14.7011 60.8382 15.6042 61.2185 16.5459 61.2185H65.4494C66.3911 61.2185 67.2942 60.8382 67.9601 60.1614C68.6259 59.4845 69 58.5665 69 57.6092C69 56.652 68.6259 55.734 67.9601 55.0571C67.2942 54.3803 66.3911 54 65.4494 54H16.5506C15.6089 54 14.7058 54.3803 14.0399 55.0571Z" fill="#EBFAE7"/>
<path d="M18.4853 67.8386C19.1512 67.1618 20.0543 66.7815 20.9959 66.7815H60.9993C61.941 66.7815 62.8441 67.1618 63.51 67.8386C64.1758 68.5155 64.5499 69.4335 64.5499 70.3908C64.5499 71.348 64.1758 72.266 63.51 72.9429C62.8441 73.6197 61.941 74 60.9993 74H20.9959C20.0543 74 19.1512 73.6197 18.4853 72.9429C17.8194 72.266 17.4453 71.348 17.4453 70.3908C17.4453 69.4335 17.8194 68.5155 18.4853 67.8386Z" fill="#EBFAE7"/>
</svg>
