<svg width="81" height="82" viewBox="0 0 81 82" fill="none" xmlns="http://www.w3.org/2000/svg">
<path opacity="0.5" d="M14.2988 34.7974C14.2988 19.9286 26.1424 7.87341 40.75 7.87341C55.3577 7.87341 67.2013 19.9286 67.2013 34.7974C67.2013 49.5506 58.76 66.7704 45.5873 72.9236C44.0733 73.6325 42.4219 74 40.75 74C39.0782 74 37.4268 73.6325 35.9128 72.9236C22.7401 66.767 14.2988 49.5539 14.2988 34.8008V34.7974Z" stroke="#EBFAE7" stroke-width="3"/>
<path d="M50.1983 43.7403L56.6207 50.1954L50.1983 43.7403ZM50.1983 43.7403C51.4975 42.4369 52.5271 40.8904 53.2286 39.189C53.93 37.4876 54.2895 35.6648 54.2865 33.8245C54.2834 31.9842 53.918 30.1625 53.2109 28.4635C52.5038 26.7644 51.4691 25.2213 50.1656 23.9221C48.8622 22.623 47.3157 21.5933 45.6143 20.8919C43.9129 20.1904 42.0901 19.831 40.2498 19.834C38.4095 19.837 36.5878 20.2025 34.8888 20.9096C33.1897 21.6166 31.6466 22.6514 30.3474 23.9548C27.7237 26.5872 26.2532 30.1541 26.2593 33.8707C26.2654 37.5873 27.7477 41.1493 30.3801 43.773C33.0125 46.3968 36.5794 47.8673 40.296 47.8612C44.0126 47.855 47.5746 46.3727 50.1983 43.7403Z" fill="#85E36E"/>
<path d="M50.1983 43.7403L56.6207 50.1954M50.1983 43.7403C51.4975 42.4369 52.5271 40.8904 53.2286 39.189C53.93 37.4876 54.2895 35.6648 54.2865 33.8245C54.2834 31.9842 53.918 30.1625 53.2109 28.4635C52.5038 26.7644 51.4691 25.2213 50.1656 23.9221C48.8622 22.623 47.3157 21.5933 45.6143 20.8919C43.9129 20.1904 42.0901 19.831 40.2498 19.834C38.4095 19.837 36.5878 20.2025 34.8888 20.9096C33.1897 21.6166 31.6466 22.6514 30.3474 23.9548C27.7237 26.5872 26.2532 30.1541 26.2593 33.8707C26.2654 37.5873 27.7477 41.1493 30.3801 43.773C33.0125 46.3968 36.5794 47.8673 40.296 47.8612C44.0126 47.855 47.5746 46.3727 50.1983 43.7403Z" stroke="#427137" stroke-width="1.5" stroke-linecap="round"/>
</svg>
