<svg width="38" height="44" viewBox="0 0 38 44" fill="none" xmlns="http://www.w3.org/2000/svg">
<path d="M12.143 23.7608C12.1553 24.0157 12.2911 24.0515 12.4707 24.0385C12.6343 24.0268 12.8004 24.0453 12.9627 24.0268C13.4022 23.975 13.6269 23.7219 13.6479 23.2744C13.6546 23.133 13.6627 22.9923 13.6701 22.8478C13.7232 22.8454 13.7503 22.8392 13.7756 22.8435C14.1633 22.909 14.3429 22.7892 14.4139 22.4046C14.5651 21.5825 14.5947 20.7634 14.3812 19.9436C14.2151 19.3066 14.2663 18.6721 14.4484 18.0277C14.4836 18.0511 14.5225 18.0622 14.5336 18.0863C14.841 18.7566 15.1725 19.4177 15.4391 20.1041C15.5669 20.4337 15.5805 20.8103 15.6293 21.1683C15.6681 21.4559 15.5515 21.7084 15.3854 21.9324C15.2188 22.1571 15.0225 22.3608 14.8602 22.588C14.7503 22.7411 14.6682 22.9164 14.5879 23.088C14.4818 23.3145 14.3892 23.5472 14.2873 23.7842C14.5602 23.8916 14.7157 23.6774 14.9268 23.6126C14.9793 23.8484 15.1521 23.8799 15.3515 23.8682C15.4262 23.8639 15.5021 23.8682 15.5774 23.8694C16.1484 23.8799 16.5737 23.5756 16.7471 23.0287C16.799 22.8657 16.8477 22.7022 16.8922 22.5367C16.9224 22.4238 16.9767 22.3806 17.1051 22.3664C17.1928 22.3565 17.3051 22.254 17.3422 22.1658C17.4977 21.7979 17.4366 21.422 17.3033 21.0646C17.1773 20.7257 16.9977 20.4072 16.8743 20.0677C16.6632 19.4869 16.6249 18.8875 16.6737 18.269C16.7027 17.9011 16.6335 17.5221 16.5761 17.153C16.515 16.7617 16.4156 16.3759 16.3329 15.9882C16.2687 15.6876 16.2848 15.6691 16.5817 15.6031C17.5366 15.3913 18.502 15.3234 19.4773 15.3679C19.9353 15.3889 20.3939 15.4018 20.8525 15.4086C21.9333 15.4247 22.9932 15.2926 24.0314 14.9759C24.6585 14.7846 25.303 14.6494 25.9313 14.4624C26.2906 14.3556 26.6369 14.2013 26.9831 14.055C27.1307 13.9926 27.2035 14.0334 27.2819 14.1605C27.535 14.5722 27.8035 14.9753 28.0559 15.3876C28.0917 15.4463 28.0893 15.5401 28.0782 15.6136C28.0343 15.8895 27.9671 16.1623 27.9331 16.4388C27.9084 16.6413 28.1041 16.8024 28.3109 16.7944C28.3677 16.7919 28.4306 16.8265 28.4837 16.8561C28.5232 16.8783 28.5479 16.9444 28.5855 16.9512C28.8287 16.9931 28.8152 17.1672 28.7923 17.3419C28.6707 18.2832 28.6152 19.2356 28.2714 20.1368C28.1041 20.5751 27.8874 20.9541 27.451 21.1936C26.7591 21.5744 26.4714 22.2324 26.3276 22.9694C26.3011 23.1065 26.4406 23.2219 26.598 23.1719C26.7381 23.1275 26.8659 23.0417 26.9961 22.9688C27.0467 22.9404 27.0887 22.8972 27.1702 22.8324C27.1572 22.9534 27.1492 23.0293 27.1362 23.1577C27.5529 23.1164 27.959 23.2417 28.3578 23.0923C28.6139 22.9966 28.7473 22.7787 28.8423 22.5367C28.8769 22.4479 28.9053 22.3547 28.9207 22.2608C28.9596 22.0219 29.059 21.8571 29.3071 21.759C29.612 21.6386 29.8034 21.4133 29.8571 21.0553C29.9799 20.2374 30.1318 19.4239 30.2886 18.6116C30.3466 18.3104 30.4509 18.0184 30.5361 17.7234C30.5793 17.5727 30.6527 17.4629 30.8194 17.403C30.9114 17.3703 31.0169 17.253 31.0342 17.1586C31.0793 16.9135 31.0916 16.6598 31.0922 16.4098C31.0929 16.2777 31.1175 16.2277 31.2564 16.1882C31.5509 16.1037 31.8367 15.9864 32.1212 15.8703C32.3015 15.7969 32.4113 15.8333 32.5354 15.995C33.0181 16.6228 33.181 17.324 33.1625 18.1091C33.1372 19.1807 32.9767 20.2208 32.6169 21.2269C32.5261 21.48 32.3638 21.7084 32.2212 21.9405C32.1817 22.0053 32.1033 22.0615 32.0305 22.0892C31.3972 22.3324 31.0601 22.8386 30.8145 23.4318C30.749 23.5892 30.6774 23.7447 30.5966 23.8947C30.512 24.0527 30.5577 24.1571 30.7355 24.1274C30.8978 24.1003 31.0509 24.012 31.2052 23.9435C31.2638 23.9176 31.3145 23.8737 31.4033 23.8145C31.3558 24.062 31.4774 24.1126 31.6422 24.0873C32.0113 24.0299 32.3823 23.9787 32.7453 23.8922C33.0434 23.8213 33.207 23.5904 33.2872 23.3015C33.3144 23.2028 33.3489 23.1022 33.3539 23.0015C33.3638 22.8059 33.457 22.6923 33.6347 22.6158C34.0137 22.4522 34.1841 22.1102 34.2464 21.7423C34.4989 20.243 35.1199 18.8665 35.6464 17.4598C35.9198 16.7302 35.9501 16.0463 35.5779 15.345C35.2655 14.7574 35.0353 14.134 34.9297 13.4717C34.7631 12.4254 34.7433 11.389 35.1236 10.3743C35.247 10.0453 35.3291 9.70082 35.4303 9.3638C35.447 9.36565 35.4637 9.3675 35.4803 9.36936C35.4865 9.46071 35.4995 9.55268 35.497 9.64404C35.4643 10.9397 35.5143 12.2328 35.7168 13.513C35.7982 14.0291 35.9791 14.529 36.1093 15.0377C36.1359 15.1407 36.1766 15.2617 36.1476 15.3543C35.9933 15.8494 36.0995 16.3216 36.2686 16.7789C36.5075 17.4252 36.8494 18.0159 37.3309 18.5178C37.3772 18.5659 37.4315 18.6134 37.4914 18.6375C37.534 18.6542 37.6025 18.6449 37.6395 18.619C37.663 18.6029 37.6654 18.5289 37.6512 18.4906C37.4908 18.0369 37.4716 17.5678 37.4815 17.0937C37.4908 16.6327 37.4617 16.1734 37.2784 15.7438C37.2074 15.5778 37.113 15.3969 36.9766 15.2889C36.6291 15.013 36.4655 14.6389 36.3939 14.2346C36.284 13.6167 36.1908 12.9914 36.1556 12.3655C36.0809 11.0267 36.0803 9.68416 35.989 8.34656C35.8772 6.7102 35.2458 5.28495 34.0539 4.13931C33.3477 3.46033 32.4767 3.07145 31.5428 2.80356C29.9268 2.34 28.2862 2.29803 26.6412 2.55357C25.311 2.76035 23.9937 3.05108 22.6679 3.28873C21.0402 3.58008 19.4007 3.75353 17.7458 3.61094C16.9218 3.53995 16.1015 3.42021 15.2799 3.31959C14.1126 3.17639 12.9442 3.24429 11.7751 3.2912C10.5918 3.33873 9.40789 3.35045 8.23325 3.16898C7.98141 3.13009 7.73944 3.02886 7.44933 2.94368C7.51846 2.84862 7.55735 2.79862 7.59253 2.74616C7.75364 2.50543 7.92092 2.2542 7.83203 1.95174C7.72092 1.57522 7.30427 1.41164 6.90305 1.57707C6.67035 1.67336 6.45554 1.81348 6.22407 1.91471C6.15308 1.94557 6.05494 1.91533 5.96976 1.91286C5.97531 1.83508 5.95494 1.74249 5.99013 1.68138C6.30987 1.11968 6.03457 0.47032 5.36546 0.253045C4.83708 0.0814465 4.29698 0.124655 3.75935 0.209219C3.70009 0.218478 3.64762 0.267242 3.59145 0.297487C3.59145 0.322178 3.59145 0.346868 3.59145 0.371558C3.68651 0.393163 3.78157 0.43205 3.87725 0.433284C4.12662 0.436371 4.37291 0.441926 4.5803 0.604883C4.70561 0.703027 4.83276 0.807344 4.77783 0.996226C4.72413 1.18079 4.54574 1.29004 4.34081 1.29868C4.05378 1.31041 3.76799 1.34251 3.48158 1.35794C3.40257 1.36226 3.29826 1.36658 3.24641 1.32276C2.91185 1.03943 2.4989 1.04684 2.10201 0.991905C1.87177 0.959807 1.63474 0.955486 1.41067 0.898699C1.15575 0.833886 0.912546 0.720928 0.661938 0.636363C0.604533 0.617228 0.537252 0.628956 0.474291 0.62587C0.484167 0.68204 0.482315 0.743149 0.506389 0.79253C0.72675 1.24807 1.1255 1.50855 1.55079 1.74188C1.71745 1.83323 1.87485 1.94372 2.02979 2.05483C2.12793 2.12519 2.22484 2.23568 2.12299 2.3437C2.06188 2.40852 1.91066 2.44247 1.82177 2.41654C1.51437 2.32519 1.21747 2.19927 0.915015 2.09186C0.799587 2.05051 0.680456 2.01594 0.56009 1.99187C0.298372 1.9394 0.0718376 2.07705 0.0236914 2.33877C-0.00285083 2.48197 -0.0170478 2.65233 0.0360366 2.78072C0.228004 3.24182 0.471822 3.66958 1.02118 3.79056C1.21439 3.83315 1.40388 3.89735 1.59894 3.92142C1.76313 3.94179 1.80634 4.01648 1.75449 4.15228C1.67733 4.35659 1.60264 4.5646 1.49586 4.75349C1.26685 5.15779 1.02674 5.55654 0.773662 5.94665C0.648359 6.14047 0.494043 6.31762 0.337259 6.48799C0.000852622 6.8534 -0.0232205 6.98056 0.19961 7.4182C0.319976 7.65461 0.440342 7.89164 0.564411 8.12619C0.713788 8.4089 0.936619 8.57988 1.26438 8.63358C1.80572 8.72185 2.31434 8.60581 2.81062 8.41631C3.10629 8.30335 3.3964 8.27989 3.71244 8.29409C4.03465 8.30829 4.35994 8.21508 4.68524 8.18915C4.83585 8.17681 5.01239 8.1694 5.13831 8.23483C5.48397 8.41569 5.80063 8.64408 6.01482 8.98789C6.55368 9.85267 7.0944 10.7162 7.64006 11.5761C7.78944 11.8112 7.93635 12.0557 8.12585 12.2569C8.36349 12.5087 8.62768 12.7427 8.90853 12.9445C9.31222 13.2346 9.56715 13.6291 9.78504 14.0574C9.92763 14.3377 10.0566 14.6253 10.1998 14.9049C10.406 15.308 10.6869 15.6506 11.0763 15.8882C11.2899 16.0185 11.4047 16.2024 11.4813 16.4327C11.7041 17.1005 11.9337 17.7659 12.1677 18.4295C12.2127 18.5579 12.2782 18.6807 12.3479 18.7974C12.5769 19.1807 12.6701 19.6017 12.6405 20.0381C12.6022 20.6103 12.5312 21.1806 12.4602 21.7504C12.4251 22.0331 12.3022 22.2824 12.1152 22.5046C11.7967 22.8824 11.5615 23.3015 11.5411 23.8139C11.5319 24.0459 11.5992 24.1021 11.8134 24.0151C11.8695 23.9922 11.9226 23.9577 11.9714 23.9206C12.0208 23.8824 12.0621 23.8367 12.143 23.7608ZM19.8198 10.3644C19.4137 10.3119 18.8242 10.2428 18.2372 10.1557C17.8995 10.1057 17.5625 10.0416 17.2317 9.95822C16.9341 9.88292 16.7971 9.65391 16.8341 9.35578C17.0539 7.59473 17.0496 5.83431 16.8274 4.0745C16.7953 3.81895 16.8132 3.79982 17.0712 3.82698C18.3909 3.96586 19.7124 3.93006 21.0247 3.77698C22.1444 3.64612 23.253 3.42638 24.3666 3.24367C24.6857 3.1912 24.7203 3.21342 24.8085 3.52699C25.2943 5.24421 25.7807 6.96081 26.2708 8.67679C26.3066 8.80148 26.285 8.86691 26.1622 8.91382C25.9196 9.00641 25.6863 9.12801 25.4394 9.20578C24.5857 9.47429 23.7277 9.72613 22.8722 9.98909C21.9383 10.2743 20.9704 10.2829 19.8198 10.3644ZM26.7177 12.9186C26.727 12.947 26.7356 12.976 26.7449 13.0044C26.9763 12.9235 27.2152 12.8587 27.4368 12.7563C27.6208 12.6711 27.7794 12.5328 27.9584 12.4353C28.0195 12.402 28.109 12.4205 28.1862 12.4149C28.1473 12.4766 28.1232 12.5686 28.0677 12.5958C27.5498 12.8489 27.027 13.0914 26.5054 13.3365C26.3782 13.3964 26.2511 13.455 26.1239 13.5143C26.1313 13.5352 26.1387 13.5562 26.1461 13.5772C26.1906 13.5772 26.24 13.5902 26.2782 13.5754C26.6727 13.4254 27.0714 13.2853 27.456 13.113C27.722 12.9939 27.9652 12.8229 28.2244 12.6871C28.2788 12.6587 28.3596 12.681 28.4288 12.6803C28.3911 12.7328 28.3646 12.8087 28.314 12.8334C27.9158 13.0266 27.5171 13.2204 27.1091 13.3927C26.7597 13.5402 26.3986 13.6612 26.0418 13.7902C25.9171 13.8352 25.7887 13.8717 25.6616 13.9118C25.6678 13.9334 25.6739 13.955 25.6795 13.976C25.7178 13.9797 25.7591 13.9945 25.7931 13.9846C26.2758 13.8402 26.7671 13.7186 27.2356 13.5365C27.6078 13.3914 27.9492 13.1667 28.3084 12.9865C28.3874 12.947 28.4849 12.9439 28.5738 12.9242C28.5831 12.9464 28.593 12.968 28.6022 12.9902C28.543 13.0414 28.4911 13.1093 28.4226 13.1408C27.9078 13.3741 27.3967 13.6167 26.872 13.826C25.59 14.3364 24.2394 14.6093 22.9018 14.9228C21.9691 15.1414 21.0198 15.1562 20.0655 15.1148C19.0742 15.0716 18.081 15.0654 17.0971 15.229C16.6595 15.3018 16.2261 15.4062 15.791 15.4938C15.5657 15.5395 15.3682 15.487 15.2194 15.3049C15.0824 15.137 15.2126 14.9963 15.2805 14.8531C15.4947 14.4037 15.7391 13.9667 15.9194 13.5044C16.0866 13.076 16.2015 12.6248 16.3113 12.1767C16.4416 11.6489 16.549 11.1156 16.6533 10.5817C16.7292 10.1959 16.8767 10.099 17.2514 10.1946C17.615 10.2872 17.981 10.3724 18.3489 10.4434C19.6649 10.6965 20.9821 10.6637 22.3031 10.4693C23.6765 10.2675 24.9178 9.6928 26.1684 9.14097C26.3362 9.0669 26.4029 9.08912 26.472 9.25825C26.6924 9.79588 26.9177 10.3317 27.1634 10.8576C27.3294 11.2125 27.5331 11.5501 27.7276 11.91C27.5319 12.0588 27.2325 12.0853 27.0844 12.3439C27.1757 12.3563 27.2646 12.3587 27.3393 12.3279C27.4387 12.2871 27.5226 12.205 27.6232 12.1692C27.73 12.131 27.843 11.9705 27.9535 12.1371C27.9677 12.1594 27.8387 12.3094 27.7522 12.3587C27.414 12.555 27.064 12.734 26.7177 12.9186ZM6.15061 3.50971C6.15123 3.48131 6.15185 3.45292 6.15247 3.42453C6.2216 3.37761 6.28456 3.30786 6.36048 3.28811C6.57837 3.23194 6.80121 3.19491 7.0228 3.15355C7.28884 3.10355 7.4839 3.30725 7.42649 3.56896C7.38452 3.76278 7.35674 3.95969 7.31045 4.15228C7.00675 5.4121 6.46048 6.55897 5.69322 7.60091C5.65681 7.65029 5.62162 7.70831 5.57162 7.73732C5.52471 7.7651 5.45805 7.75954 5.40064 7.7688C5.40003 7.71325 5.38336 7.65214 5.40188 7.60338C5.44015 7.50153 5.4994 7.4077 5.54508 7.30833C5.62039 7.14599 5.69199 6.98241 5.76544 6.81946C5.7389 6.80526 5.71236 6.79044 5.6852 6.77625C5.63829 6.85526 5.58582 6.93118 5.54632 7.01328C5.31423 7.49597 4.96856 7.85954 4.45191 8.03237C4.32538 8.07496 4.18588 8.07743 4.05193 8.0978C4.04267 8.07373 4.03403 8.04965 4.02477 8.0262C4.22538 7.89102 4.48216 7.81386 4.58956 7.51326C4.27846 7.60955 4.12291 7.95583 3.73774 7.91571C3.97786 7.69658 4.2976 7.58239 4.20254 7.20463C4.1297 7.25092 4.06736 7.30771 4.02539 7.37684C3.89453 7.59288 3.73589 7.78485 3.49454 7.87065C3.01987 8.03978 2.54582 8.22125 2.05756 8.34038C1.63289 8.44408 1.21685 8.40273 1.00452 7.91694C1.00205 7.91077 0.981679 7.91262 0.954519 7.9083C0.969951 7.99595 0.984148 8.07743 0.998345 8.15891C0.932298 8.13916 0.891559 8.10521 0.869955 8.062C0.768724 7.85398 0.668728 7.64535 0.578608 7.43239C0.563177 7.39598 0.586632 7.33178 0.610705 7.29228C0.718726 7.11759 0.701443 7.01451 0.537252 6.89229C0.487871 6.85526 0.442811 6.81267 0.347753 6.73119C0.579225 6.64662 0.756379 6.58119 0.944026 6.51268C0.8823 6.4633 0.826129 6.41824 0.781686 6.38244C1.10883 5.80962 1.42796 5.24668 1.75017 4.68559C2.07361 4.12265 2.32237 3.52884 2.46742 2.88751C2.3557 3.1017 2.24398 3.31589 2.13225 3.53008C2.11065 3.5202 2.08966 3.50971 2.06806 3.49983C2.08225 3.09738 2.20262 2.73752 2.53841 2.46469C2.49458 2.43382 2.46372 2.41222 2.44273 2.39679C2.5594 2.24247 2.74149 2.10421 2.76124 1.94557C2.78099 1.78694 2.82976 1.72459 2.95074 1.70052C3.3248 1.62583 3.70133 1.5604 4.07847 1.49929C4.1439 1.4888 4.21489 1.51287 4.28278 1.52151C4.28587 1.54682 4.28958 1.57151 4.29266 1.59682C4.16304 1.62707 4.03341 1.65669 3.90317 1.68694C3.90379 1.69682 3.90502 1.70669 3.90564 1.71657C4.02107 1.72953 4.13588 1.74188 4.25131 1.75484C4.25069 1.7678 4.25007 1.78138 4.24945 1.79434C4.16797 1.81163 4.08711 1.82891 4.00564 1.84619C4.00131 1.86409 3.99638 1.88199 3.99206 1.90051C4.19822 1.99187 4.40809 2.07458 4.6087 2.17643C4.93214 2.34062 5.23213 2.26346 5.52842 2.10853C5.57039 2.08631 5.60681 2.04248 5.65063 2.03569C5.7031 2.02767 5.76051 2.04804 5.81544 2.05606C5.79939 2.10544 5.79754 2.1684 5.76483 2.20173C5.65742 2.31222 5.53891 2.4116 5.42472 2.5153C5.44262 2.53938 5.46052 2.56345 5.47842 2.58752C5.70866 2.44864 5.93519 2.30235 6.17037 2.17211C6.44381 2.02088 6.71664 1.86162 7.00552 1.7462C7.26168 1.64435 7.46538 1.74311 7.57957 1.95977C7.6987 2.18569 7.66784 2.3937 7.45674 2.56345C7.02465 2.90973 6.54504 3.13812 5.97161 3.11096C5.88396 3.10664 5.79445 3.1412 5.70557 3.15787C5.70248 3.18503 5.6994 3.21281 5.69631 3.23997C5.84816 3.3307 5.99939 3.42021 6.15061 3.50971ZM28.6158 9.94958C28.6368 9.87674 28.6392 9.84094 28.6559 9.81502C29.0553 9.18356 29.4022 8.52494 29.6485 7.8188C29.7157 7.62621 29.8053 7.55832 29.9935 7.65461C30.5892 7.95892 31.2003 8.23668 31.7762 8.57371C32.3558 8.9132 32.9236 9.26072 33.5786 9.44466C33.973 9.55577 34.3563 9.70576 34.7452 9.836C34.8594 9.87428 34.9131 9.93291 34.8767 10.0644C34.6254 10.9853 34.4464 11.9156 34.5069 12.8791C34.51 12.9297 34.4322 13.0223 34.3785 13.0334C34.0983 13.0933 33.815 13.1427 33.5304 13.1772C33.1539 13.2229 32.8058 13.3494 32.5119 13.5785C32.1737 13.8414 31.8552 14.1321 31.5478 14.4315C31.4015 14.5741 31.2928 14.6019 31.1299 14.4735C30.6904 14.1266 30.2454 13.7871 29.8009 13.4464C29.5627 13.2636 29.2812 13.1192 29.0905 12.897C28.7331 12.481 28.3226 12.0995 28.0905 11.5841C28.038 11.4674 27.9621 11.3545 27.8726 11.2631C27.7609 11.1489 27.7689 11.0613 27.8633 10.9452C28.0399 10.7279 28.2158 10.5088 28.3738 10.2773M27.6825 10.9847C27.3029 10.2144 26.8838 9.52923 26.6171 8.78913C26.0931 7.33672 25.6511 5.85406 25.1814 4.38251C25.0882 4.08993 25.0042 3.7918 24.9468 3.49057C24.9011 3.25046 25.0011 3.12577 25.2314 3.07886C25.5258 3.01837 25.8215 2.95911 26.119 2.9159C27.2226 2.7548 28.3269 2.59863 29.4485 2.7085C29.8892 2.75171 30.0651 2.89615 30.0466 3.33502C30.0207 3.95599 29.9873 4.5788 29.9071 5.19483C29.7861 6.1238 29.6324 7.04784 29.3077 7.93546C28.9639 8.87617 28.5905 9.8002 27.9954 10.6162C27.9133 10.7292 27.8146 10.8298 27.6825 10.9847ZM12.1936 3.60847C12.1936 3.58872 12.1936 3.56896 12.1936 3.54921C12.3096 3.54366 12.4263 3.54366 12.5417 3.53069C12.7257 3.51032 12.8084 3.58316 12.8485 3.76896C13.0368 4.63312 13.0139 5.50531 12.8652 6.36083C12.7343 7.11142 12.4862 7.84226 12.288 8.58111C12.2504 8.72062 12.143 8.74345 12.014 8.73605C10.7233 8.66198 9.48011 8.40581 8.32646 7.79226C8.19683 7.72312 8.18263 7.65708 8.24127 7.53424C8.3888 7.22623 8.53139 6.91513 8.66842 6.60218C9.06778 5.68864 9.52147 4.79237 9.61344 3.77636C9.62826 3.61156 9.7264 3.60662 9.85602 3.60723C10.635 3.61032 11.4146 3.60847 12.1936 3.60847ZM32.8582 23.0447C32.8416 23.0398 32.8249 23.0355 32.8082 23.0306C32.7903 23.0559 32.7693 23.0799 32.7558 23.1071C32.6051 23.4145 32.5638 23.4262 32.328 23.183C32.1453 22.9954 31.9687 22.812 31.6959 22.7528C31.5607 22.7232 31.5842 22.6219 31.6712 22.559C31.8089 22.4596 31.9521 22.3596 32.107 22.2929C32.4027 22.1658 32.5897 21.9516 32.7169 21.6633C33.2557 20.4387 33.5749 19.1684 33.4989 17.8215C33.4724 17.3511 33.3977 16.8931 33.1693 16.4592C32.8348 15.8222 32.3379 15.3475 31.786 14.9136C31.5799 14.7512 31.5657 14.6408 31.7681 14.4747C32.0101 14.2753 32.2589 14.0784 32.5267 13.9173C33.0909 13.5772 33.6897 13.3445 34.3705 13.3964C34.5569 13.4106 34.6267 13.4889 34.6668 13.6618C34.8297 14.3543 35.0118 15.0438 35.3587 15.6716C35.6198 16.145 35.6297 16.6215 35.4563 17.1147C35.3044 17.5462 35.1464 17.9758 34.9841 18.4036C34.5791 19.4696 34.1137 20.5146 33.9471 21.6578C33.902 21.9658 33.7866 22.2577 33.4742 22.4071C33.2446 22.517 33.1249 22.704 33.0724 22.9441C33.0459 23.0645 33.0329 23.1898 32.9885 23.3028C32.9632 23.367 32.8872 23.4114 32.8341 23.4645C32.8175 23.4491 32.8002 23.4336 32.7835 23.4176C32.8076 23.2935 32.8329 23.1694 32.8582 23.0447ZM13.8756 3.51279C13.8762 3.50107 13.8775 3.48934 13.8781 3.47823C14.7151 3.56464 15.5515 3.65291 16.3885 3.73686C16.5687 3.75476 16.6465 3.84056 16.6669 4.02327C16.8113 5.34112 16.8132 6.65712 16.6638 7.97435C16.6484 8.11076 16.5959 8.18977 16.4638 8.2194C16.0836 8.30458 15.7052 8.39717 15.3237 8.47556C14.4904 8.64778 13.6466 8.72494 12.7967 8.74469C12.6195 8.74901 12.5769 8.6842 12.6226 8.52494C12.6621 8.38668 12.6942 8.24656 12.7269 8.10706C12.9257 7.25462 13.1682 6.40589 13.13 5.52012C13.104 4.92632 13.0436 4.33375 12.9794 3.74303C12.9602 3.56403 13.0053 3.50539 13.1781 3.51094C13.4102 3.51773 13.6429 3.51279 13.8756 3.51279ZM8.09498 7.82868C8.16844 7.86262 8.19868 7.87682 8.22893 7.8904C8.80915 8.1478 9.38259 8.42063 9.97022 8.65827C10.6048 8.91505 11.2831 8.97554 11.959 9.02739C12.1356 9.04097 12.1689 9.10455 12.1541 9.27121C12.0862 10.0446 12.0282 10.8193 11.9751 11.594C11.9634 11.7662 11.9158 11.8477 11.7214 11.8544C11.3609 11.8668 10.9961 11.8841 10.6436 11.952C10.0949 12.0581 9.55418 12.205 9.01223 12.3421C8.74064 12.4106 8.53262 12.3587 8.38756 12.0983C8.32892 11.9933 8.22276 11.9162 8.14868 11.818C7.91968 11.5131 7.68451 11.2113 7.47587 10.8928C7.40674 10.7878 7.36662 10.6286 7.38699 10.5063C7.48822 9.90143 7.595 9.2959 7.74006 8.70025C7.81228 8.40149 7.97153 8.12373 8.09498 7.82868ZM31.1231 2.99676C31.6774 3.20787 32.1922 3.40416 32.7076 3.59983C32.9774 3.70168 33.0848 3.89982 33.107 4.18314C33.1773 5.09298 33.0662 5.98554 32.8841 6.87254C32.7903 7.32808 32.6885 7.78115 32.4434 8.18792C32.249 8.51136 32.2619 8.49779 31.9274 8.34409C31.3138 8.06262 30.6953 7.78917 30.0676 7.54041C29.7886 7.42993 29.7756 7.46017 29.8355 7.16203C29.8423 7.1287 29.8472 7.09475 29.8565 7.06142C30.1824 5.85221 30.2207 4.61645 30.1762 3.37576C30.1571 2.84307 30.3083 2.72147 30.8021 2.95232M8.89248 12.5773C8.96902 12.5501 9.00853 12.5297 9.05112 12.5223C9.60048 12.4242 10.1505 12.3266 10.7004 12.2316C10.9152 12.1946 11.1313 12.1365 11.3473 12.1341C12.0498 12.1273 12.7522 12.1273 13.454 12.1532C13.8269 12.1668 14.1966 12.2408 14.5682 12.2865C15.0071 12.3408 15.4459 12.3908 15.8836 12.4532C15.9231 12.4587 15.9848 12.5464 15.9786 12.5877C15.9502 12.7754 15.9249 12.9698 15.8546 13.1445C15.628 13.7062 15.3854 14.2624 15.1416 14.8167C15.0929 14.9272 15.025 15.0395 14.9373 15.1197C14.8669 15.1846 14.7534 15.2025 14.6589 15.2407C14.6231 15.1407 14.5472 15.0358 14.5595 14.942C14.5935 14.6784 14.6651 14.4204 14.7176 14.1587C14.7305 14.0945 14.7281 14.0272 14.7324 13.9612C14.7114 13.955 14.6904 13.9482 14.67 13.942C14.5509 14.1402 14.4318 14.3389 14.3021 14.555C13.9435 14.2661 13.5466 14.1445 13.1275 14.0945C12.4701 14.0167 11.8813 14.2006 11.3615 14.6031C11.2189 14.7136 11.1344 14.7229 11.0584 14.5401C11.0233 14.4543 10.9609 14.3741 10.893 14.3099C10.8523 14.2716 10.7776 14.2692 10.7183 14.2506C10.7054 14.3136 10.6757 14.379 10.6844 14.4389C10.6955 14.5105 10.7381 14.5784 10.769 14.6463C10.8393 14.8019 10.9214 14.9531 10.9782 15.1136C11.001 15.1778 10.9696 15.2605 10.9628 15.3352C10.8967 15.3111 10.8227 15.2981 10.7665 15.2592C10.7122 15.2222 10.6696 15.1623 10.6344 15.1049C10.5091 14.9012 10.3801 14.6994 10.2684 14.4883C10.1147 14.1976 9.97577 13.8994 9.83072 13.605C9.84491 13.5933 9.85911 13.5809 9.87269 13.5692C10.04 13.6439 10.2079 13.7186 10.3751 13.7926C10.3875 13.771 10.4004 13.7494 10.4128 13.7272C10.0307 13.2093 9.35975 13.0476 8.89248 12.5773ZM16.6014 8.33668C16.6058 8.41199 16.6181 8.47063 16.6107 8.52741C16.4545 9.71749 16.2965 10.9069 16.1385 12.0964C16.12 12.2353 16.0471 12.2729 15.9089 12.2513C15.27 12.1501 14.6311 12.0476 13.9898 11.9656C13.5108 11.9044 13.0281 11.8736 12.5467 11.8298C12.472 11.823 12.388 11.8372 12.3244 11.8075C12.2609 11.7779 12.1812 11.7112 12.1714 11.6501C12.1417 11.4699 12.114 11.2804 12.1368 11.1008C12.2133 10.5119 12.3041 9.92427 12.4078 9.33973C12.4652 9.01752 12.4812 9.00579 12.8078 8.99283C13.7904 8.95271 14.7441 8.7342 15.7015 8.53852C15.9941 8.47865 16.2842 8.40828 16.6014 8.33668ZM7.14255 10.3496C7.04626 10.2008 6.97527 10.0909 6.90367 9.98168C6.57405 9.47985 6.2716 8.95703 5.90556 8.48359C5.58644 8.07126 5.55434 7.97435 5.91112 7.58486C5.93396 7.55955 5.95803 7.53486 5.98148 7.51017C6.5506 6.90834 6.96108 6.20528 7.19625 5.41889C7.3697 4.83929 7.46229 4.23561 7.57834 3.63995C7.61043 3.47638 7.64685 3.40909 7.84067 3.43811C8.31287 3.50847 8.7894 3.5523 9.26531 3.59119C9.42333 3.60415 9.50542 3.65476 9.46715 3.8134C9.38814 4.14425 9.33567 4.48806 9.20543 4.79855C8.82088 5.71826 8.38941 6.61885 8.00363 7.53795C7.64685 8.38791 7.28637 9.24097 7.20242 10.1761C7.1981 10.2144 7.1765 10.2508 7.14255 10.3496ZM12.7936 19.243C12.5942 18.7826 12.3837 18.3665 12.2312 17.9301C11.9152 17.0277 11.6313 16.1135 11.3307 15.2049C11.2337 14.913 11.2387 14.8753 11.5029 14.7056C12.3602 14.1556 13.2361 14.2241 14.1207 14.6358C14.2744 14.7074 14.275 14.8241 14.2626 14.9765C14.2176 15.5407 14.1275 16.1123 14.1738 16.6709C14.2392 17.461 14.1373 18.2264 14.0213 18.9974C14.0046 19.1066 13.9565 19.185 13.8287 19.135C13.4744 18.9974 13.1337 19.0066 12.7936 19.243ZM33.2372 3.9529C33.3341 4.00907 33.394 4.03438 33.4428 4.07327C34.0514 4.56214 34.5606 5.13557 34.9378 5.8232C35.2112 6.32194 35.4396 6.84723 35.3958 7.4182C35.3482 8.03608 35.226 8.64963 35.1063 9.25887C35.0155 9.71996 34.9748 9.72737 34.5273 9.60083C33.8156 9.3996 33.1946 9.00456 32.5465 8.66877C32.4218 8.60395 32.4669 8.52062 32.523 8.43112C32.8564 7.89781 33.0675 7.31326 33.2168 6.70773C33.4181 5.8911 33.3533 5.06459 33.265 4.23993C33.2564 4.16153 33.2496 4.08253 33.2372 3.9529ZM16.4218 23.0503C16.3237 22.9948 16.2675 22.9583 16.207 22.9299C15.9533 22.8114 15.7033 22.6843 15.4435 22.5824C15.1867 22.4818 15.1743 22.4725 15.3583 22.2689C15.7262 21.8621 15.87 21.3781 15.7984 20.8455C15.7101 20.185 15.5249 19.5492 15.2089 18.9554C15.0003 18.5634 14.8083 18.1622 14.6114 17.7635C14.5879 17.7159 14.5805 17.6598 14.5558 17.5734C14.6268 17.6172 14.6558 17.6351 14.7015 17.6635C14.6861 17.3437 14.4676 17.0734 14.541 16.7647C14.5595 16.7598 14.5781 16.7543 14.5966 16.7493C14.6707 16.9079 14.7447 17.0666 14.8188 17.2246C14.8466 17.1388 14.8373 17.0654 14.8244 16.9925C14.7879 16.7839 14.7472 16.5752 14.7145 16.366C14.6966 16.2487 14.712 16.1407 14.8515 16.0833C14.9114 16.3049 14.9676 16.5117 15.0237 16.7185C15.0478 16.7135 15.0719 16.708 15.0966 16.703C15.0861 16.5555 15.0892 16.4055 15.0626 16.2611C15.0318 16.0926 15.0287 15.9672 15.2435 15.9327C15.4521 15.8993 15.433 16.0555 15.4706 16.1716C15.4959 16.25 15.5268 16.3265 15.5546 16.4043C15.5762 16.4006 15.5972 16.3975 15.6188 16.3938C15.6188 16.2308 15.6188 16.0679 15.6188 15.8796C15.6675 15.9154 15.6854 15.9216 15.6879 15.9314C15.8225 16.5518 15.9848 17.1678 16.0792 17.7943C16.1644 18.3604 16.1595 18.9394 16.2249 19.5091C16.2743 19.9399 16.4243 20.3405 16.6706 20.7084C16.7842 20.8782 16.8298 21.0942 16.8971 21.2923C16.9335 21.3997 16.952 21.5139 16.978 21.6251C16.999 21.6207 17.0193 21.6164 17.0403 21.6121C17.0292 21.4028 17.0181 21.1936 17.0064 20.9843C17.0317 20.9831 17.0564 20.9812 17.0817 20.98C17.1471 21.3183 17.2471 21.6541 17.157 22.0084C17.1477 22.0442 17.0625 22.0794 17.0113 22.0824C16.7348 22.0966 16.6527 22.1547 16.5805 22.4195C16.5292 22.6145 16.4823 22.812 16.4218 23.0503ZM30.8225 17.0573C30.7947 17.0666 30.7663 17.0765 30.7385 17.0857C30.6892 17.003 30.6225 16.9252 30.5941 16.8357C30.5361 16.6543 30.4904 16.4678 30.4558 16.2802C30.4312 16.1463 30.3626 16.0913 30.2342 16.0524C29.8701 15.9413 29.5083 15.8191 29.154 15.6815C29.0337 15.6345 28.9417 15.6216 28.8683 15.7277C28.7448 15.9055 28.638 16.0944 28.5115 16.2697C28.4652 16.3339 28.3831 16.3728 28.3177 16.4228C28.2899 16.332 28.2269 16.2351 28.2411 16.1524C28.28 15.9314 28.3393 15.7117 28.4152 15.5006C28.467 15.3562 28.4442 15.2642 28.3331 15.1599C28.0029 14.8475 27.8127 14.4457 27.6448 14.0315C27.5911 13.8988 27.6282 13.8278 27.7708 13.7673C28.0707 13.6396 28.3751 13.5087 28.6467 13.3309C28.8374 13.2062 28.9732 13.242 29.1213 13.3556C29.7287 13.8217 30.3336 14.2902 30.9373 14.7611C30.9984 14.8087 31.0453 14.8735 31.1404 14.9747C30.9064 15.0475 30.7194 15.1062 30.5046 15.1735C30.7311 15.2734 30.9077 15.213 31.0892 15.1228C31.133 15.1012 31.2083 15.1432 31.2688 15.1556C31.2311 15.2 31.2003 15.2741 31.1552 15.2833C30.9355 15.3296 30.7126 15.358 30.4904 15.3944C30.3972 15.4099 30.3046 15.4302 30.2114 15.4481C30.2157 15.4784 30.22 15.508 30.2244 15.5383C30.4503 15.5247 30.6774 15.5166 30.9027 15.4957C31.004 15.4864 31.1021 15.442 31.2033 15.4339C31.2595 15.4296 31.3188 15.4667 31.3768 15.4852C31.3361 15.5327 31.3046 15.6018 31.2527 15.6234C31.1601 15.6629 31.0558 15.6778 30.9558 15.6957C30.7929 15.724 30.6287 15.7463 30.42 15.7784C30.6614 15.9802 30.8978 15.7852 31.1317 15.8666C31.0787 15.9006 31.0515 15.9321 31.0237 15.9333C30.8027 15.9426 30.796 16.0592 30.8169 16.2487C30.8447 16.5141 30.8225 16.787 30.8225 17.0573ZM29.2818 16.545C29.3226 16.5573 29.3633 16.5691 29.404 16.5814C29.3849 16.7326 29.3658 16.8839 29.3405 17.0876C29.388 17.0141 29.4046 16.9796 29.4293 16.9518C29.4738 16.9012 29.5232 16.8549 29.5707 16.8067C29.5874 16.8863 29.6151 16.9654 29.6176 17.0456C29.6195 17.0962 29.5793 17.1468 29.5658 17.1999C29.5281 17.3462 29.4935 17.4937 29.4584 17.64C29.4763 17.6462 29.4948 17.6517 29.5127 17.6579C29.5818 17.4987 29.6516 17.3394 29.7207 17.1802C29.7441 17.187 29.7682 17.1937 29.7917 17.2005C29.7139 17.6055 29.6361 18.0104 29.5583 18.4153C29.8373 18.1425 29.7071 17.7215 29.9546 17.4363C29.9787 17.5246 29.9849 17.6104 29.9633 17.6888C29.8528 18.0974 29.7312 18.503 29.6213 18.9116C29.5688 19.1072 29.5318 19.3072 29.488 19.5048C29.5158 19.5122 29.5441 19.519 29.5719 19.5264C29.7003 19.0863 29.8287 18.6455 29.9571 18.2054C29.9929 18.2746 30.0009 18.3406 29.9917 18.4042C29.9429 18.735 29.8911 19.0653 29.8373 19.3955C29.7454 19.9615 29.6429 20.5263 29.5614 21.0942C29.5219 21.3701 29.3503 21.4936 29.1256 21.6127C28.9868 21.6868 28.8726 21.8269 28.7781 21.959C28.7096 22.0553 28.6899 22.1868 28.6504 22.3034C28.5726 22.5361 28.5189 22.559 28.3195 22.4207C28.2189 22.3509 28.1374 22.2547 28.0374 22.1837C27.8275 22.0349 27.6115 21.8948 27.3973 21.7528C27.3535 21.7238 27.306 21.6997 27.2177 21.6485C27.3899 21.5158 27.5306 21.3905 27.688 21.2893C28.13 21.0053 28.4214 20.606 28.551 20.1078C28.6997 19.5344 28.8263 18.9536 28.925 18.369C29.0016 17.919 29.0053 17.4567 29.0719 17.0042C29.0966 16.8444 29.2096 16.6975 29.2818 16.545ZM12.2991 22.6441C12.3183 22.6009 12.3238 22.5719 12.3405 22.5528C12.6343 22.2084 12.7423 21.7973 12.7639 21.3584C12.7911 20.7924 12.801 20.2257 12.8337 19.6597C12.8392 19.5609 12.9022 19.4054 12.9738 19.3819C13.1837 19.3134 13.4127 19.2616 13.6312 19.2714C13.9688 19.2856 14.0262 19.369 14.0694 19.7054C14.0744 19.7461 14.083 19.7862 14.0923 19.8264C14.275 20.6343 14.3435 21.443 14.1589 22.2627C14.0843 22.5929 14.0787 22.6083 13.7614 22.4979C13.5911 22.438 13.5139 22.4849 13.504 22.6639C13.496 22.8071 13.4997 22.9509 13.4948 23.0941C13.4917 23.1972 13.4485 23.2571 13.3392 23.1997C12.9966 23.0194 12.6553 22.8349 12.2991 22.6441ZM0.597743 2.87825C0.59157 2.90418 0.586015 2.9301 0.579842 2.95664C0.703294 2.98195 0.826747 3.00973 0.950816 3.03257C1.16254 3.07207 1.37673 3.09985 1.58536 3.15046C1.73597 3.18688 1.81189 3.29367 1.78473 3.45848C1.75511 3.6381 1.61993 3.65538 1.47796 3.66341C0.929212 3.69303 0.440959 3.34428 0.216276 2.76406C0.0730721 2.3937 0.211956 2.20482 0.595891 2.28692C1.00205 2.37333 1.4008 2.4974 1.8014 2.60974C1.8835 2.63258 2.01806 2.62209 1.98226 2.7727C1.94954 2.91097 1.85263 2.92578 1.72733 2.8906C1.38598 2.79307 1.0434 2.7011 0.700826 2.60974C0.661938 2.59925 0.617495 2.60851 0.575522 2.60851C0.571201 2.62703 0.567497 2.64493 0.563177 2.66344C0.681073 2.72579 0.79897 2.78875 0.916249 2.85109C0.910077 2.86961 0.904521 2.88751 0.898349 2.90603C0.798352 2.89677 0.698356 2.88751 0.597743 2.87825ZM4.50438 0.313536C4.77289 0.257365 5.16115 0.320943 5.40435 0.441309C5.73952 0.607352 5.94445 0.923389 5.90741 1.21535C5.85865 1.60114 5.55125 1.95236 5.19016 2.01841C5.14448 2.02705 5.08522 1.97273 5.03522 1.94248C4.97782 1.90792 4.88585 1.82706 4.87474 1.83693C4.78462 1.92026 4.71116 1.88631 4.68215 1.80113C4.66055 1.73755 4.67351 1.64003 4.71116 1.58324C4.77351 1.48818 4.87103 1.41658 4.94757 1.32955C5.18707 1.05795 5.15189 0.749322 4.85807 0.543157C4.75314 0.469703 4.6445 0.404273 4.50438 0.313536ZM35.8896 10.0348C35.9988 11.718 35.8896 13.4241 36.4143 15.066C35.6365 13.4531 35.6161 11.76 35.8896 10.0348ZM37.2401 17.2876C37.1815 17.0154 37.1229 16.7573 37.0704 16.4981C37.0186 16.2407 36.9618 15.987 36.7494 15.7901C36.8735 16.4277 36.9982 17.0654 37.1222 17.703C37.1025 17.7073 37.0834 17.7122 37.0636 17.7166C36.8124 17.2795 36.6186 16.8209 36.5667 16.3049C36.6167 16.382 36.6667 16.4592 36.7167 16.5364C36.7402 16.4506 36.7216 16.387 36.7062 16.3228C36.6445 16.0567 36.5754 15.7919 36.5303 15.5234C36.5198 15.4617 36.576 15.3611 36.6321 15.3247C36.671 15.2994 36.7698 15.3383 36.8266 15.3728C36.8883 15.4111 36.9414 15.4716 36.9834 15.5327C37.3488 16.0635 37.3377 16.6617 37.2871 17.2666C37.2858 17.2697 37.2747 17.2721 37.2401 17.2876ZM11.8553 23.7669C11.8356 23.4244 11.935 23.1688 12.0924 22.9349C12.1208 22.8923 12.2275 22.8552 12.2701 22.8756C12.6072 23.0349 12.9584 23.1775 13.2627 23.3873C13.4929 23.5453 13.4244 23.754 13.1417 23.8114C12.9442 23.8515 12.7355 23.8379 12.5325 23.8497C12.38 23.8589 12.3177 23.7997 12.3516 23.641C12.3788 23.5139 12.3899 23.383 12.4115 23.2324C12.0874 23.2861 12.093 23.6083 11.8553 23.7669ZM26.7331 22.8873C26.7066 22.8719 26.6794 22.8565 26.6529 22.8411C26.7566 22.5793 26.8486 22.3121 26.9683 22.0577C27.0714 21.8392 27.1967 21.8028 27.3967 21.9374C27.6887 22.1337 27.9664 22.3528 28.2461 22.5676C28.3004 22.6096 28.3831 22.7022 28.3695 22.7281C28.3325 22.7991 28.259 22.8787 28.1862 22.8966C28.043 22.9318 27.8899 22.933 27.7405 22.9367C27.4776 22.9435 27.4862 22.9398 27.4868 22.6812C27.4868 22.5824 27.4362 22.4837 27.4084 22.3849C27.3029 22.4176 27.1899 22.438 27.093 22.488C27.0313 22.5201 26.9942 22.5972 26.9443 22.6528C26.8745 22.7318 26.8035 22.8096 26.7331 22.8873ZM16.8403 20.5918C16.8181 20.5998 16.7965 20.6072 16.7743 20.6152C16.6607 20.3615 16.5292 20.114 16.4373 19.8529C16.2323 19.269 16.2348 18.6591 16.2342 18.0486C16.2342 17.7166 16.1947 17.3814 16.1373 17.0542C16.0737 16.6913 15.965 16.3364 15.8873 15.9753C15.8749 15.9172 15.9212 15.8469 15.9404 15.7821C15.9842 15.8333 16.0521 15.8784 16.0675 15.937C16.1576 16.2882 16.2231 16.6456 16.32 16.9944C16.47 17.5357 16.5335 18.0783 16.4471 18.6381C16.3564 19.2251 16.5101 19.777 16.7298 20.3146C16.7681 20.4066 16.8039 20.4998 16.8403 20.5918ZM14.8966 23.27C14.8441 22.854 15.0682 22.6306 15.404 22.7367C15.6416 22.812 15.8749 22.9201 16.0885 23.0497C16.3527 23.2102 16.3391 23.3484 16.0762 23.517C16.036 23.5429 15.9947 23.5842 15.9527 23.5861C15.7397 23.5947 15.5114 23.6404 15.3169 23.5805C15.1429 23.5268 15.3243 23.3441 15.3021 23.2207C15.2922 23.1663 15.27 23.0997 15.2299 23.0701C15.2058 23.0522 15.1311 23.0867 15.0892 23.1126C15.0293 23.1503 14.9787 23.2021 14.8966 23.27ZM31.0324 23.846C31.0083 23.7762 30.9972 23.7608 31.0009 23.7521C31.0854 23.5583 31.1706 23.3645 31.2583 23.1713C31.3669 22.933 31.5293 22.8546 31.7478 22.9929C32.028 23.1707 32.2854 23.3867 32.5434 23.5978C32.6527 23.6873 32.6261 23.7904 32.4854 23.8163C32.2854 23.8534 32.0817 23.8774 31.878 23.8879C31.6021 23.9015 31.6132 23.8947 31.6367 23.6145C31.6459 23.5046 31.5928 23.3892 31.5675 23.2762C31.4898 23.3429 31.4052 23.404 31.3361 23.4787C31.2361 23.5879 31.1459 23.7071 31.0324 23.846ZM0.865017 0.99746C0.94773 0.98388 0.974889 0.972152 0.999579 0.975856C1.54647 1.06536 2.09336 1.15116 2.6384 1.25054C2.74766 1.27029 2.84766 1.34189 2.95197 1.38942C2.94765 1.41226 2.94395 1.43571 2.93963 1.45855C2.78593 1.51287 2.67359 1.68077 2.46619 1.59003C2.43533 1.57645 2.37854 1.60176 2.34335 1.6246C2.32854 1.63447 2.3341 1.68447 2.34027 1.71472C2.34953 1.76039 2.36743 1.80484 2.38224 1.84928C2.33039 1.83323 2.27422 1.82521 2.22793 1.7999C1.9372 1.64311 1.66437 1.43078 1.35512 1.34127C1.14031 1.27955 1.02612 1.17029 0.865017 0.99746ZM30.2182 17.1721C30.0114 16.9987 29.9546 16.8043 29.9287 16.603C29.9225 16.5524 29.996 16.445 30.0287 16.4462C30.0929 16.4493 30.1867 16.4975 30.2096 16.5512C30.2565 16.661 30.2775 16.787 30.2836 16.9079C30.2886 16.9845 30.2472 17.0635 30.2182 17.1721ZM28.8645 16.7178C28.8399 16.716 28.8158 16.7135 28.7911 16.7117C28.7652 16.6327 28.6942 16.5283 28.7213 16.479C28.7954 16.3444 28.8948 16.2086 29.0182 16.1222C29.0824 16.0771 29.1966 16.1759 29.1429 16.2827C29.0658 16.4351 28.959 16.5734 28.8645 16.7178Z" fill="black"/>
<path d="M18.115 4.28499C20.0452 4.4356 21.9408 4.29301 23.7666 3.55539C21.8957 3.90908 20.0273 4.28499 18.1033 4.17018C18.107 4.20907 18.1107 4.24672 18.115 4.28499Z" fill="black"/>
<path d="M22.5247 4.21399C21.5359 4.33189 20.5884 4.44546 19.6409 4.55842C19.6433 4.57756 19.6464 4.59731 19.6489 4.61644C20.6069 4.5683 21.571 4.56398 22.5247 4.21399Z" fill="black"/>
<path d="M25.7894 8.72186C25.1351 8.9558 24.4814 9.18975 23.8271 9.42369C23.8383 9.45517 23.8494 9.48603 23.8605 9.51751C24.5197 9.29777 25.187 9.10086 25.8123 8.78668C25.8048 8.76507 25.7974 8.74347 25.7894 8.72186Z" fill="black"/>
<path d="M25.6327 8.04779C25.1339 8.2484 24.6352 8.44901 24.129 8.65271C24.3364 8.71875 25.4277 8.31938 25.6574 8.09964C25.6493 8.08297 25.6413 8.06569 25.6327 8.04779Z" fill="black"/>
<path d="M18.2816 9.91378C17.8908 9.78107 17.5001 9.64836 17.1094 9.51627C17.455 9.78354 17.8328 9.95514 18.2816 9.91378Z" fill="black"/>
<path d="M23.6899 3.92576C24.0578 3.8665 24.377 3.81465 24.7177 3.75972C24.4695 3.62207 23.9566 3.69984 23.6899 3.92576Z" fill="black"/>
<path d="M17.9297 9.50145C17.7069 9.43726 17.4835 9.37306 17.2606 9.30887C17.3964 9.53602 17.747 9.65083 17.9131 9.5712C17.9186 9.54837 17.9242 9.52491 17.9297 9.50145Z" fill="black"/>
<path d="M25.645 7.74042C25.3512 7.87189 25.058 8.00337 24.7642 8.13546C24.774 8.15954 24.7839 8.18299 24.7938 8.20707C25.0913 8.0867 25.3882 7.96633 25.6857 7.84659C25.6721 7.8114 25.6586 7.7756 25.645 7.74042Z" fill="black"/>
<path d="M17.87 4.61215C17.6447 4.5498 17.4194 4.48746 17.1941 4.4245C17.3157 4.62326 17.5898 4.6998 17.87 4.61215Z" fill="black"/>
<path d="M22.0709 4.69608C21.7518 4.74052 21.4876 4.77755 21.166 4.82261C21.4339 4.93249 21.9043 4.87323 22.0709 4.69608Z" fill="black"/>
<path d="M24.1956 9.07494C24.4715 8.96568 24.7474 8.85643 25.0227 8.74717C25.0128 8.72125 25.003 8.69532 24.9931 8.67001C24.7196 8.77927 24.4456 8.88852 24.1721 8.9984C24.1801 9.0237 24.1876 9.04901 24.1956 9.07494Z" fill="black"/>
<path d="M17.1471 4.07883C17.2335 4.28499 17.4921 4.33808 17.7347 4.20907C17.5026 4.15722 17.3249 4.11833 17.1471 4.07883Z" fill="black"/>
<path d="M24.653 3.97388C24.4814 4.00289 24.3104 4.03252 24.1388 4.06153C24.1437 4.09363 24.1487 4.12634 24.1536 4.15844C24.3258 4.13375 24.498 4.10906 24.6696 4.08437C24.6647 4.04795 24.6585 4.01091 24.653 3.97388Z" fill="black"/>
<path d="M17.6749 9.22246C17.5205 9.16999 17.3668 9.11691 17.2008 9.06012C17.2397 9.23912 17.3983 9.29962 17.6749 9.22246Z" fill="black"/>
<path d="M17.1737 8.90829C17.3107 8.94409 17.4478 8.97989 17.5848 9.01631C17.5928 8.98915 17.6009 8.96138 17.6089 8.93422C17.4725 8.89409 17.336 8.85335 17.2002 8.81323C17.191 8.8441 17.1823 8.87619 17.1737 8.90829Z" fill="black"/>
<path d="M23.5025 9.50641C23.3883 9.54468 23.2741 9.58295 23.1599 9.62122C23.1704 9.65085 23.1809 9.68048 23.1914 9.7101C23.3044 9.66813 23.4173 9.62616 23.5303 9.58418C23.521 9.55826 23.5117 9.53233 23.5025 9.50641Z" fill="black"/>
<path d="M17.4082 14.8642C16.7749 14.9605 16.1416 15.0568 15.5083 15.1531C15.512 15.1765 15.5157 15.2 15.5194 15.2228C16.1688 15.2179 16.7959 15.0685 17.4237 14.9253C17.4187 14.9049 17.4138 14.8846 17.4082 14.8642Z" fill="black"/>
<path d="M17.1384 10.6255C17.5409 10.7088 17.9433 10.7922 18.3458 10.8755C18.352 10.8459 18.3581 10.8162 18.3643 10.7866C17.9637 10.6934 17.5625 10.6002 17.1619 10.507C17.1532 10.5465 17.1458 10.586 17.1384 10.6255Z" fill="black"/>
<path d="M26.2375 9.36008C25.9332 9.49526 25.6289 9.63105 25.3246 9.76623C25.3357 9.79092 25.3462 9.815 25.3573 9.83969C25.6869 9.75944 25.9931 9.62673 26.2832 9.45637C26.2678 9.42427 26.2529 9.39217 26.2375 9.36008Z" fill="black"/>
<path d="M16.3681 14.7827C16.1447 14.7827 15.9218 14.7827 15.6848 14.7827C15.7996 14.9327 16.1255 14.9395 16.3681 14.7827Z" fill="black"/>
<path d="M16.9379 10.7891C17.0391 10.9625 17.1496 10.9786 17.407 10.8891C17.2181 10.8483 17.078 10.8187 16.9379 10.7891Z" fill="black"/>
<path d="M3.6112 3.83317C3.87909 3.48998 3.99514 3.44985 4.23278 3.57763C4.0976 3.68503 3.89699 3.77083 3.82848 3.91774C3.73959 4.10971 3.75564 4.35044 3.72478 4.58191C4.09267 4.52142 4.40006 4.4492 4.53833 4.08934C4.57845 3.9844 4.67042 3.89922 4.73832 3.80478C4.6445 3.73997 4.53524 3.68935 4.46055 3.60726C4.2192 3.34245 3.92724 3.37085 3.75873 3.48812C3.65194 3.5622 3.55441 3.65046 3.6112 3.83317ZM4.25686 3.91712C4.27537 3.91589 4.29389 3.91403 4.31303 3.9128C4.32537 3.97329 4.36488 4.04613 4.34389 4.09119C4.31118 4.16094 4.2371 4.21155 4.18093 4.27019C4.17044 4.25847 4.16056 4.24612 4.15007 4.23439C4.18587 4.12822 4.22167 4.02267 4.25686 3.91712Z" fill="black"/>
<path d="M5.0519 2.85417C5.31917 2.97454 5.60558 3.01219 5.87594 2.89429C6.23334 2.73874 6.59135 2.63628 6.98516 2.65912C7.07157 2.66405 7.1617 2.60233 7.24996 2.57085C7.24564 2.54554 7.24132 2.52085 7.237 2.49554C7.04442 2.49554 6.85183 2.49554 6.65863 2.49554C6.65431 2.47209 6.64999 2.44863 6.64567 2.42517C6.83146 2.19309 7.12836 2.24864 7.43761 2.18197C7.35613 2.14556 7.3228 2.1221 7.287 2.11593C6.98763 2.06593 6.71974 2.15605 6.46913 2.31036C6.34691 2.38567 6.2321 2.47209 6.11112 2.54801C5.83829 2.71961 5.54818 2.82331 5.21794 2.77578C5.16362 2.76775 5.10622 2.78319 5.05005 2.78812C5.05005 2.80973 5.05067 2.83195 5.0519 2.85417Z" fill="black"/>
<path d="M1.70073 7.71817C1.76493 7.72558 1.83344 7.75212 1.89208 7.73731C2.14701 7.6725 2.35564 7.54225 2.47539 7.29412C2.54885 7.14165 2.63279 6.99413 2.6902 6.81636C2.50132 6.93734 2.40749 6.84475 2.32046 6.71636C2.10874 6.40156 1.79764 6.51143 1.50012 6.53427C1.77665 6.63735 2.09763 6.68858 2.19084 7.01758C2.30565 7.42251 1.9501 7.50769 1.69888 7.65645C1.70011 7.6762 1.70073 7.69719 1.70073 7.71817Z" fill="black"/>
<path d="M4.44087 2.59865C4.32359 2.43261 4.17112 2.47643 4.08162 2.5326C3.86003 2.67087 3.63843 2.82519 3.46251 3.0153C3.33968 3.14863 3.2761 3.34615 3.21499 3.52516C3.1008 3.85786 3.00821 4.19735 2.90759 4.53006C3.10758 4.31649 3.244 4.05292 3.33535 3.75416C3.40387 3.52824 3.49461 3.30603 3.60324 3.09616C3.75386 2.80728 3.98101 2.61285 4.33593 2.63075C4.36062 2.6326 4.38655 2.61655 4.44087 2.59865Z" fill="black"/>
<path d="M2.26434 6.39971C2.38779 6.19231 2.49088 5.99541 2.61742 5.81393C2.82667 5.51333 3.0495 5.2226 3.26801 4.92878C3.34949 4.81953 3.44269 4.71892 3.51615 4.60472C3.55503 4.54423 3.56244 4.46399 3.59515 4.35782C3.09641 4.66089 2.14151 6.11577 2.26434 6.39971Z" fill="black"/>
<path d="M5.15065 4.30783C5.00066 4.48437 4.87659 4.69856 4.69265 4.82633C4.50562 4.95657 4.25933 5.00163 4.00378 5.09731C4.35624 5.14792 4.66981 5.18187 4.92597 4.92015C5.08708 4.75473 5.1988 4.56585 5.15065 4.30783Z" fill="black"/>
<path d="M1.50326 7.4293C1.65757 7.4293 1.78102 7.31819 1.76868 7.17931C1.7551 7.02685 1.64337 6.975 1.5119 6.96512C1.34092 6.95216 1.15018 7.0787 1.14339 7.19783C1.1366 7.32375 1.30018 7.4293 1.50326 7.4293Z" fill="black"/>
<path d="M5.15314 5.10779C4.86673 5.36025 4.51551 5.33185 4.16614 5.35716C4.32354 5.52382 4.60254 5.57197 4.85623 5.48123C5.02104 5.42259 5.14388 5.31889 5.15314 5.10779Z" fill="black"/>
<path d="M7.12834 3.49179C6.94872 4.02572 6.7691 4.55965 6.57898 5.12506C6.81539 4.86951 7.20303 3.78067 7.12834 3.49179Z" fill="black"/>
<path d="M6.6783 4.19178C6.82706 3.96771 6.87767 3.71093 6.92644 3.45292C6.89866 3.44366 6.87088 3.4344 6.84372 3.42514C6.76472 3.67266 6.68509 3.91957 6.60608 4.16709C6.63015 4.17573 6.65423 4.18375 6.6783 4.19178Z" fill="black"/>
<path d="M4.32178 5.68555C4.4977 5.92258 4.71559 5.91332 4.89459 5.64172C4.69028 5.65716 4.51128 5.67135 4.32178 5.68555Z" fill="black"/>
<path d="M2.26746 5.12385C2.27918 5.09422 2.29091 5.06521 2.30264 5.03558L2.26746 5.12385Z" fill="black"/>
<path d="M1.97485 4.91891C1.96374 4.94607 1.95325 4.97323 1.94214 5.00039L1.97485 4.91891Z" fill="black"/>
<path d="M28.1417 11.0767C28.0763 11.3298 28.2127 11.4841 28.3535 11.6452C28.4436 11.7483 28.4998 11.8816 28.5788 11.9958C28.6979 12.1687 28.7985 12.3668 28.9522 12.5026C29.4275 12.9217 29.9201 13.3223 30.4163 13.7167C30.6274 13.8846 30.8645 14.0192 31.1274 14.134C31.0176 14.0069 30.9157 13.8723 30.796 13.7556C30.6935 13.6562 30.5719 13.576 30.4571 13.4902C30.083 13.2087 29.6769 12.9606 29.3417 12.6384C29.0158 12.3248 28.7584 11.9384 28.4788 11.5779C28.3566 11.4187 28.2541 11.244 28.1417 11.0767Z" fill="black"/>
<path d="M34.3816 11.21C34.4841 10.8298 34.5865 10.4496 34.6884 10.0693C34.473 10.194 34.2551 10.9853 34.3224 11.1958C34.3421 11.2002 34.3619 11.2051 34.3816 11.21Z" fill="black"/>
<path d="M30.3558 13.1803C30.6472 13.4593 30.9391 13.7377 31.2305 14.0167C31.2441 14.0025 31.257 13.9889 31.2706 13.9747C31.0965 13.5723 30.7731 13.3241 30.396 13.1316C30.3824 13.1482 30.3694 13.1643 30.3558 13.1803Z" fill="black"/>
<path d="M28.7904 11.4921C28.6416 11.2958 28.4935 11.1002 28.3447 10.9039C28.3472 11.2415 28.533 11.5001 28.7416 11.5341C28.7583 11.5199 28.7743 11.5057 28.7904 11.4921Z" fill="black"/>
<path d="M29.8898 7.99285C30.1385 8.06939 30.3867 8.14593 30.6749 8.23482C30.5502 8.01631 30.1151 7.86817 29.9083 7.93421C29.9021 7.95397 29.8959 7.97372 29.8898 7.99285Z" fill="black"/>
<path d="M34.4187 9.98663C34.2033 10.1243 34.1249 10.4181 34.2348 10.6971C34.3026 10.436 34.3557 10.2311 34.4187 9.98663Z" fill="black"/>
<path d="M34.0915 9.90512C34.0458 10.0428 34.0002 10.1804 33.9539 10.3181C33.9866 10.3298 34.0193 10.3421 34.0514 10.3539C34.1038 10.2187 34.1569 10.0835 34.2094 9.94895C34.1705 9.93475 34.131 9.91994 34.0915 9.90512Z" fill="black"/>
<path d="M28.7874 11.0619C28.7164 10.9347 28.6448 10.8076 28.5541 10.6452C28.4837 10.8582 28.5695 11.0125 28.7874 11.0619Z" fill="black"/>
<path d="M30.2596 8.29716C30.1355 8.2558 30.012 8.21506 29.888 8.17371C29.8799 8.19901 29.8713 8.22432 29.8633 8.25025C29.988 8.2879 30.1127 8.32555 30.2373 8.36321C30.2447 8.3416 30.2522 8.31938 30.2596 8.29716Z" fill="black"/>
<path d="M26.3906 3.07392C27.4813 2.97145 28.5708 2.79553 29.714 3.03009C29.4646 2.74245 27.361 2.76035 26.3906 3.07392Z" fill="black"/>
<path d="M26.9474 8.72988C27.1122 9.19653 27.2702 9.66565 27.49 10.1101C27.5171 10.0996 27.5449 10.0891 27.5721 10.078C27.4005 9.61503 27.2282 9.1527 27.0566 8.68976C27.0208 8.70396 26.9844 8.71692 26.9474 8.72988Z" fill="black"/>
<path d="M29.7317 3.20354C29.2947 3.14058 28.8558 3.11528 28.4114 3.21527C28.8502 3.24181 29.2891 3.26897 29.7274 3.29552C29.7292 3.26465 29.7305 3.23441 29.7317 3.20354Z" fill="black"/>
<path d="M27.5066 9.15333C27.5541 9.46752 27.6665 9.75887 27.8387 10.028C27.856 10.0218 27.8732 10.0156 27.8911 10.0101C27.7905 9.71504 27.6899 9.41999 27.5893 9.12494C27.5621 9.1342 27.5344 9.14346 27.5066 9.15333Z" fill="black"/>
<path d="M29.0059 3.53256C29.2565 3.56034 29.5065 3.58873 29.7571 3.61651C29.7595 3.59614 29.7614 3.57515 29.7639 3.55478C29.5274 3.40479 29.2676 3.44861 29.0108 3.47392C29.0083 3.49367 29.0071 3.51281 29.0059 3.53256Z" fill="black"/>
<path d="M10.7918 3.85045C11.351 3.96217 11.9096 3.86094 12.4683 3.84119C12.4683 3.82082 12.4683 3.80107 12.4683 3.7807C11.9096 3.7807 11.351 3.7807 10.7918 3.7807C10.7912 3.80354 10.7918 3.827 10.7918 3.85045Z" fill="black"/>
<path d="M11.9603 8.48855C11.3221 8.38609 10.6838 8.28301 10.0456 8.18054C10.04 8.19536 10.0345 8.21017 10.0289 8.22498C10.1505 8.26758 10.2684 8.33054 10.3937 8.34905C10.9104 8.42559 11.4295 8.48917 11.9474 8.55707C11.9517 8.53423 11.956 8.51139 11.9603 8.48855Z" fill="black"/>
<path d="M11.9924 8.32064C11.5702 8.083 11.0832 8.12497 10.6283 8.02374C11.0505 8.25583 11.5381 8.21571 11.9924 8.32064Z" fill="black"/>
<path d="M12.209 8.04596C11.9047 7.84844 11.5696 7.77745 11.2109 7.80091C11.5356 7.91572 11.8547 8.05399 12.209 8.04596Z" fill="black"/>
<path d="M11.6084 7.58115C11.8257 7.64165 12.0423 7.70214 12.2596 7.76263C12.2658 7.74103 12.272 7.72004 12.2781 7.69843C12.0849 7.55646 11.8584 7.5256 11.6238 7.52313C11.6183 7.54288 11.6133 7.56202 11.6084 7.58115Z" fill="black"/>
<path d="M12.046 4.00967C12.2219 4.15411 12.3991 4.16646 12.5781 4.07078C12.5781 4.05041 12.5787 4.03004 12.5787 4.00967C12.4009 4.00967 12.2238 4.00967 12.046 4.00967Z" fill="black"/>
<path d="M10.3776 4.17513C10.2289 4.14118 10.0795 4.10661 9.93072 4.07266C9.92517 4.09735 9.92023 4.12204 9.91467 4.14673C10.0634 4.17698 10.2122 4.20723 10.3603 4.23809C10.3665 4.21648 10.3721 4.1955 10.3776 4.17513Z" fill="black"/>
<path d="M33.539 16.8894C33.8489 18.6641 33.4353 20.3121 32.8335 21.9534C32.8681 21.9139 32.9082 21.8775 32.9372 21.8343C33.2341 21.3967 33.3773 20.8992 33.5032 20.393C33.7328 19.4708 33.8322 18.5369 33.7495 17.5888C33.7316 17.3876 33.6619 17.1907 33.61 16.9938C33.5989 16.9555 33.5631 16.924 33.539 16.8894Z" fill="black"/>
<path d="M34.8143 18.2134C34.4495 18.9307 34.1952 19.6887 33.9908 20.4652C34.0137 20.4738 34.0365 20.4819 34.06 20.4905C34.334 19.7399 34.6087 18.9893 34.8828 18.2387C34.8599 18.2301 34.8371 18.2215 34.8143 18.2134Z" fill="black"/>
<path d="M34.4934 13.689C34.386 14.0538 34.8471 15.3327 35.0995 15.471C34.8946 14.8679 34.694 14.2784 34.4934 13.689Z" fill="black"/>
<path d="M34.0946 13.747C34.0643 13.7001 34.0365 13.6581 34.0063 13.6112C33.9804 13.6322 33.9507 13.6476 33.9526 13.6569C33.9674 13.7396 33.9921 13.8926 34.0069 13.892C34.202 13.8809 34.1989 14.0525 34.2699 14.1537C34.2909 14.184 34.3236 14.2062 34.3507 14.2315C34.3699 14.2235 34.3896 14.2149 34.4088 14.2068C34.3532 14.0229 34.2976 13.8396 34.2378 13.642C34.1909 13.6587 34.1637 13.6624 34.1458 13.6766C34.1248 13.6933 34.1137 13.7198 34.0946 13.747Z" fill="black"/>
<path d="M33.8982 20.7893C33.8421 20.9776 33.7865 21.1652 33.7303 21.3535C33.7563 21.3615 33.7816 21.3695 33.8075 21.3776C33.9365 21.214 33.9544 21.0134 33.9847 20.8165C33.9556 20.8072 33.9273 20.7986 33.8982 20.7893Z" fill="black"/>
<path d="M35.0107 17.9869C35.0668 17.8375 35.1236 17.6882 35.1798 17.5388C35.1477 17.527 35.1156 17.5153 35.0829 17.5042C35.028 17.6542 34.9736 17.8036 34.9187 17.9536C34.9496 17.9641 34.9804 17.9758 35.0107 17.9869Z" fill="black"/>
<path d="M33.7193 21.6417C33.6841 21.7886 33.6496 21.9355 33.6144 22.0818C33.6397 22.0892 33.6656 22.0973 33.6909 22.1047C33.7354 21.9608 33.7804 21.817 33.8249 21.6732C33.7903 21.6627 33.7545 21.6522 33.7193 21.6417Z" fill="black"/>
<path d="M15.2874 3.88686C15.6435 3.93624 15.9768 3.98253 16.3564 4.035C16.1256 3.82884 15.5306 3.75538 15.2874 3.88686Z" fill="black"/>
<path d="M13.9152 8.3663C13.6016 8.3984 13.2887 8.4305 12.9751 8.46321C12.9794 8.49654 12.9831 8.52988 12.9874 8.56321C13.2998 8.52062 13.6115 8.47864 13.9238 8.43605C13.9214 8.4126 13.9183 8.38976 13.9152 8.3663Z" fill="black"/>
<path d="M13.0992 8.30457C13.322 8.27062 13.5448 8.23729 13.767 8.20334C13.7633 8.17433 13.759 8.14531 13.7553 8.1163C13.5319 8.14531 13.3078 8.17432 13.0844 8.20395C13.0893 8.2379 13.0942 8.27123 13.0992 8.30457Z" fill="black"/>
<path d="M15.7866 8.07065C16.0001 8.02497 16.2137 7.97929 16.4273 7.93361C16.4199 7.90028 16.4131 7.86695 16.4057 7.83362C16.1934 7.88423 15.981 7.93485 15.7687 7.98546C15.7748 8.01324 15.7804 8.04163 15.7866 8.07065Z" fill="black"/>
<path d="M16.494 7.61697C16.3261 7.6466 16.1583 7.67561 15.9904 7.70524C15.9941 7.72746 15.9978 7.74968 16.0015 7.77191C16.1724 7.76141 16.3502 7.7966 16.5058 7.68981C16.5021 7.66574 16.4984 7.64105 16.494 7.61697Z" fill="black"/>
<path d="M11.7918 11.2921C11.6017 11.3119 11.4122 11.3316 11.222 11.3514C11.2251 11.3854 11.2282 11.4187 11.2313 11.4526C11.4233 11.4421 11.6146 11.431 11.8066 11.4205C11.8017 11.3773 11.7967 11.3347 11.7918 11.2921Z" fill="black"/>
<path d="M11.3011 11.1631C11.4615 11.1631 11.6214 11.1631 11.7819 11.1631C11.7819 11.1347 11.7819 11.1063 11.7813 11.0779C11.6202 11.0779 11.4597 11.0779 11.2986 11.0779C11.2998 11.1057 11.3004 11.1341 11.3011 11.1631Z" fill="black"/>
<path d="M11.7485 11.6045C11.5955 11.6045 11.4424 11.6045 11.2899 11.6045C11.2899 11.623 11.2899 11.6409 11.2899 11.6594C11.4424 11.6594 11.5948 11.6594 11.7473 11.6594C11.7479 11.6409 11.7485 11.623 11.7485 11.6045Z" fill="black"/>
<path d="M8.16663 8.11569C8.29749 8.19347 8.42834 8.27124 8.5592 8.34901C8.57278 8.32679 8.58636 8.30457 8.59994 8.28235C8.47032 8.20211 8.34069 8.12248 8.21107 8.04224C8.19687 8.06693 8.18144 8.09162 8.16663 8.11569Z" fill="black"/>
<path d="M32.7526 3.77392C32.2675 3.59491 31.7823 3.41652 31.2971 3.23752C31.2854 3.26962 31.2737 3.30233 31.2626 3.33443C31.7508 3.50417 32.2391 3.67392 32.7273 3.84305C32.736 3.82021 32.7446 3.79737 32.7526 3.77392Z" fill="black"/>
<path d="M32.5471 3.97082C32.1996 3.8554 31.8527 3.73997 31.5052 3.62454C31.4953 3.6517 31.4855 3.67886 31.4756 3.70602C31.8194 3.82762 32.1638 3.94922 32.5076 4.07082C32.5212 4.03749 32.5342 4.00416 32.5471 3.97082Z" fill="black"/>
<path d="M32.8231 4.40843C32.5651 4.31091 32.3071 4.21276 32.0491 4.11523C32.038 4.14301 32.0275 4.17079 32.0164 4.19856C32.2701 4.30473 32.5237 4.41152 32.7774 4.51769C32.7929 4.48127 32.8083 4.44485 32.8231 4.40843Z" fill="black"/>
<path d="M15.9478 11.6563C16.0052 11.6014 16.0392 11.5693 16.0725 11.5372C15.9781 11.4878 15.8867 11.4328 15.7879 11.394C15.7682 11.3859 15.7244 11.4403 15.6917 11.4656C15.7719 11.5248 15.8521 11.5847 15.9478 11.6563Z" fill="black"/>
<path d="M16.0217 12.0588C15.8761 12.0224 15.7304 11.9859 15.5847 11.9495C15.5773 11.9792 15.5699 12.0082 15.5625 12.0378C15.7082 12.0748 15.8538 12.1125 15.9989 12.1495C16.0063 12.1193 16.0137 12.089 16.0217 12.0588Z" fill="black"/>
<path d="M16.031 11.8186C15.9434 11.702 15.8403 11.6316 15.6687 11.7668C15.7804 11.8026 15.8928 11.8378 16.0045 11.8736C16.0137 11.8551 16.0224 11.8365 16.031 11.8186Z" fill="black"/>
<path d="M16.1391 11.2477C16.0379 11.2403 15.9367 11.2329 15.8354 11.2261C15.8323 11.2545 15.8293 11.2822 15.8262 11.3106C15.9274 11.3273 16.0292 11.344 16.1305 11.3606C16.1329 11.3224 16.136 11.2853 16.1391 11.2477Z" fill="black"/>
<path d="M6.94142 9.67553C6.96549 9.2632 6.44452 8.42188 5.92603 8.19534C6.25996 8.68236 6.59575 9.17185 6.94142 9.67553Z" fill="black"/>
<path d="M9.18691 3.81033C8.85914 3.7733 8.57273 3.74058 8.26904 3.70663C8.35114 3.89613 8.95297 3.96959 9.18691 3.81033Z" fill="black"/>
<path d="M9.12032 4.08747C8.90057 4.05538 8.68144 4.02328 8.4617 3.99118C8.45738 4.02266 8.45244 4.05414 8.44812 4.08562C8.66848 4.11895 8.88946 4.15229 9.10982 4.18562C9.11353 4.1529 9.11723 4.12019 9.12032 4.08747Z" fill="black"/>
<path d="M11.5474 15.0494C11.8245 16.0055 12.1023 16.961 12.3794 17.9172C12.5183 17.5598 11.835 15.158 11.5474 15.0494Z" fill="black"/>
<path d="M12.3973 16.2895C12.3139 15.8185 12.1677 15.3667 11.9923 14.9235C11.9621 14.9327 11.9319 14.9414 11.9016 14.9506C12.0405 15.4031 12.18 15.8555 12.3189 16.308C12.3448 16.3024 12.3707 16.2956 12.3973 16.2895Z" fill="black"/>
<path d="M34.4076 5.32999C34.1317 5.00346 33.8558 4.67693 33.5792 4.35101C33.5539 4.37262 33.528 4.3936 33.5027 4.41521C33.7842 4.7368 34.0656 5.05901 34.3471 5.3806C34.3675 5.36394 34.3878 5.34727 34.4076 5.32999Z" fill="black"/>
<path d="M33.6311 4.95164C33.7465 5.09423 33.8613 5.23681 33.9768 5.3794C33.9984 5.36273 34.0194 5.34607 34.041 5.3294C33.9311 5.18249 33.8212 5.03497 33.7113 4.88806C33.6842 4.90967 33.6576 4.93065 33.6311 4.95164Z" fill="black"/>
<path d="M15.9904 19.269C15.9163 18.3789 16.091 17.4592 15.6398 16.6357C15.5885 16.7178 15.8743 19.0961 15.9904 19.269Z" fill="black"/>
<path d="M16.3508 22.1997C16.3341 22.3824 16.3168 22.5651 16.3002 22.7478C16.3242 22.7509 16.3477 22.754 16.3718 22.7571C16.5088 22.5935 16.4156 22.3954 16.4533 22.2164C16.4187 22.2108 16.3847 22.2053 16.3508 22.1997Z" fill="black"/>
<path d="M27.7701 13.9661C27.8559 14.1556 27.9424 14.3451 28.0282 14.534C28.0572 14.5216 28.0862 14.5093 28.1146 14.4969C28.0312 14.3068 27.9473 14.1173 27.864 13.9272C27.8325 13.9402 27.8016 13.9531 27.7701 13.9661Z" fill="black"/>
<path d="M28.4466 22.2127C28.5139 21.8695 28.675 21.5917 29.0256 21.3905C28.6188 21.3707 28.2936 21.8633 28.4466 22.2127Z" fill="black"/>
<path d="M29.1997 21.222C29.4225 21.1609 29.5052 20.9294 29.3867 20.6905C29.3225 20.8745 29.2658 21.0356 29.1997 21.222Z" fill="black"/>
<path d="M13.7867 19.548C13.8349 20.4356 13.8837 21.3226 13.933 22.2269C14.1985 22.0071 14.133 20.0239 13.8658 19.5443C13.8392 19.5449 13.8127 19.5461 13.7867 19.548Z" fill="black"/>
<path d="M13.6077 20.7782C13.6367 21.1275 13.6657 21.4769 13.6966 21.8547C13.8669 21.6874 13.8132 20.9498 13.6077 20.7782Z" fill="black"/>
<path d="M13.6738 19.5758C13.4664 19.7931 13.5102 20.1585 13.7571 20.3399C13.7256 20.0529 13.6997 19.8147 13.6738 19.5758Z" fill="black"/>
<path d="M13.3645 19.5659C13.246 19.7202 13.3096 19.8677 13.4299 20.0146C13.4299 19.8646 13.4299 19.714 13.4299 19.564C13.4083 19.5646 13.3867 19.5653 13.3645 19.5659Z" fill="black"/>
<path d="M13.3311 22.8775C13.3311 22.7565 13.3311 22.6361 13.3311 22.5151C13.3101 22.5139 13.2898 22.5133 13.2688 22.5121C13.262 22.6337 13.2552 22.7546 13.2484 22.8762C13.2762 22.8769 13.304 22.8775 13.3311 22.8775Z" fill="black"/>
<path d="M27.759 22.8096C27.7813 22.7972 27.8146 22.7911 27.8239 22.7719C27.8646 22.6904 27.8979 22.6053 27.9343 22.5213C27.8992 22.5151 27.8381 22.4942 27.8325 22.504C27.7837 22.5917 27.7455 22.6855 27.7035 22.7769C27.722 22.7886 27.7405 22.7991 27.759 22.8096Z" fill="black"/>
<path d="M7.59134 31.4945H10.6324V32.5638H9.82269L6.7878 40.8649H5.08802L2.0964 32.5638H1.26815V31.4945H4.30921V32.5638H3.49332L5.89773 39.7894L8.47522 32.5638H7.59134V31.4945ZM11.0836 31.2473H13.1604V39.8018H14.1247V40.8649H11.0836V39.8018H12.0108V32.3104H11.0836V31.2473ZM19.0139 40.2716C18.7708 40.4982 18.5008 40.6836 18.2042 40.8278C17.9116 40.9721 17.5778 41.0442 17.2028 41.0442C16.8897 41.0442 16.6012 40.9947 16.3375 40.8958C16.0779 40.7969 15.8533 40.663 15.6638 40.4941C15.4742 40.321 15.3259 40.1211 15.2187 39.8945C15.1157 39.6679 15.0642 39.4268 15.0642 39.1713C15.0642 38.8994 15.1033 38.6583 15.1816 38.4481C15.2641 38.238 15.3712 38.0567 15.503 37.9042C15.639 37.7476 15.7956 37.6178 15.9728 37.5148C16.1541 37.4077 16.3416 37.3232 16.5353 37.2614C16.7331 37.1955 16.9329 37.1501 17.1348 37.1254C17.3409 37.0966 17.5366 37.0821 17.722 37.0821C18.0187 37.0821 18.268 37.0924 18.4699 37.113C18.6719 37.1295 18.8552 37.1543 19.0201 37.1872L19.0262 36.6618C19.0262 36.4352 18.9933 36.2395 18.9273 36.0746C18.8614 35.9057 18.7687 35.7676 18.6492 35.6605C18.5297 35.5492 18.3855 35.4668 18.2165 35.4133C18.0517 35.3597 17.8663 35.3329 17.6602 35.3329C17.4666 35.3329 17.2811 35.3473 17.1039 35.3762C16.9267 35.4009 16.7599 35.4359 16.6033 35.4813C16.4508 35.5225 16.3086 35.5719 16.1768 35.6296C16.049 35.6832 15.9398 35.7409 15.8492 35.8027L15.4721 35.0053C15.6246 34.9064 15.7915 34.8158 15.9728 34.7334C16.1541 34.6468 16.3437 34.5747 16.5415 34.517C16.7434 34.4552 16.9473 34.4078 17.1534 34.3749C17.3635 34.3378 17.5696 34.3192 17.7715 34.3192C18.1423 34.3192 18.4761 34.3645 18.7728 34.4552C19.0695 34.5417 19.3209 34.6777 19.5269 34.8632C19.7329 35.0486 19.8916 35.2855 20.0028 35.574C20.1141 35.8583 20.1697 36.2003 20.1697 36.6L20.1635 39.8018H20.8744V40.8649H19.0139V40.2716ZM17.4563 40.0799C17.6087 40.0799 17.7612 40.0614 17.9137 40.0243C18.0661 39.9872 18.2103 39.9378 18.3463 39.876C18.4823 39.81 18.608 39.7359 18.7234 39.6534C18.8387 39.5669 18.9356 39.4783 19.0139 39.3877L19.0201 37.9413H17.685C17.4624 37.9413 17.2585 37.966 17.073 38.0155C16.8917 38.0649 16.7331 38.137 16.5971 38.2318C16.4652 38.3266 16.3622 38.444 16.288 38.5841C16.2139 38.7242 16.1768 38.8849 16.1768 39.0663C16.1768 39.2352 16.2077 39.3835 16.2695 39.5113C16.3313 39.6349 16.4178 39.74 16.5291 39.8265C16.6445 39.9089 16.7805 39.9728 16.937 40.0181C17.0936 40.0593 17.2667 40.0799 17.4563 40.0799ZM26.7958 36.1673C26.6227 35.8583 26.4023 35.6317 26.1344 35.4874C25.8707 35.3432 25.5637 35.2711 25.2134 35.2711C24.9456 35.2711 24.6942 35.3267 24.4594 35.438C24.2245 35.5492 24.0184 35.7079 23.8413 35.9139C23.6682 36.12 23.5301 36.3713 23.4271 36.668C23.3282 36.9606 23.2788 37.2882 23.2788 37.6508C23.2788 38.0093 23.3282 38.3328 23.4271 38.6212C23.5301 38.9097 23.6702 39.1569 23.8474 39.3629C24.0246 39.5649 24.2286 39.7214 24.4594 39.8327C24.6942 39.9398 24.9456 39.9934 25.2134 39.9934C25.609 39.9934 25.9531 39.8986 26.2457 39.7091C26.5382 39.5154 26.7711 39.2331 26.9441 38.8623L27.896 39.332C27.7724 39.5958 27.6199 39.8327 27.4386 40.0429C27.2573 40.253 27.0513 40.4323 26.8205 40.5806C26.5939 40.7289 26.3425 40.8423 26.0664 40.9206C25.7945 41.003 25.506 41.0442 25.2011 41.0442C24.756 41.0442 24.344 40.9618 23.9649 40.7969C23.5899 40.628 23.2644 40.3931 22.9883 40.0923C22.7163 39.7915 22.5041 39.433 22.3516 39.0168C22.1992 38.6006 22.1229 38.1453 22.1229 37.6508C22.1229 37.1563 22.2033 36.701 22.364 36.2848C22.5247 35.8686 22.7452 35.5122 23.0254 35.2155C23.3056 34.9147 23.6332 34.6798 24.0081 34.5108C24.3831 34.3419 24.7849 34.2574 25.2134 34.2574C25.6173 34.2574 25.9984 34.3275 26.3569 34.4676C26.7196 34.6077 27.0368 34.8199 27.3088 35.1042H27.9578V36.1673H26.7958ZM30.1706 37.8115C30.1706 37.9928 30.183 38.1597 30.2077 38.3122C30.2366 38.4605 30.2757 38.6027 30.3251 38.7387C30.4776 39.1507 30.7207 39.4618 31.0545 39.672C31.3924 39.878 31.7736 39.981 32.198 39.981C32.5318 39.981 32.8552 39.9357 33.1684 39.8451C33.4857 39.7503 33.8174 39.604 34.1636 39.4062L34.6271 40.1912C34.2068 40.4796 33.7845 40.6939 33.36 40.834C32.9356 40.9741 32.4947 41.0442 32.0373 41.0442C31.6046 41.0442 31.2029 40.9721 30.832 40.8278C30.4653 40.6836 30.148 40.4693 29.8801 40.185C29.6164 39.9007 29.4083 39.5463 29.2558 39.1219C29.1075 38.6974 29.0333 38.203 29.0333 37.6384C29.0333 37.181 29.0972 36.7504 29.2249 36.3466C29.3527 35.9387 29.5422 35.5843 29.7936 35.2835C30.0491 34.9785 30.3643 34.7375 30.7393 34.5603C31.1143 34.3831 31.5511 34.2945 32.0497 34.2945C32.5318 34.2945 32.9335 34.3687 33.255 34.517C33.5805 34.6612 33.8442 34.8549 34.0461 35.098C34.2522 35.337 34.4067 35.6111 34.5097 35.9201C34.6168 36.2292 34.691 36.5444 34.7322 36.8658C34.7528 37.0224 34.7652 37.181 34.7693 37.3417C34.7775 37.5025 34.7817 37.659 34.7817 37.8115H30.1706ZM31.9693 35.2587C31.7015 35.2587 31.4666 35.2979 31.2647 35.3762C31.0669 35.4504 30.8979 35.5595 30.7578 35.7038C30.6177 35.8439 30.5044 36.0169 30.4179 36.223C30.3355 36.429 30.2736 36.6598 30.2324 36.9153H33.5516C33.5352 36.6763 33.496 36.4558 33.4342 36.2539C33.3765 36.052 33.2859 35.8768 33.1622 35.7285C33.0386 35.5802 32.88 35.4648 32.6863 35.3824C32.4926 35.2999 32.2536 35.2587 31.9693 35.2587Z" fill="black"/>
</svg>
