<svg width="81" height="82" viewBox="0 0 81 82" fill="none" xmlns="http://www.w3.org/2000/svg">
<path d="M23.2677 52.1967L23.2677 52.1966L26.2947 44.8899L25.8328 44.6986L26.2948 44.8899C26.7629 43.7599 27.449 42.7331 28.3139 41.8682C28.3139 41.8682 28.3139 41.8682 28.3139 41.8682L54.2332 15.9499C55.3166 14.9047 56.7668 14.3263 58.2722 14.3391C59.779 14.3519 61.2205 14.9559 62.2862 16.0212C63.3519 17.0864 63.9566 18.5276 63.97 20.0343C63.9834 21.5396 63.4055 22.99 62.3608 24.0737L36.4416 49.9954C35.5765 50.8602 34.5497 51.5463 33.4196 52.0145C33.4196 52.0145 33.4196 52.0145 33.4196 52.0145L26.1127 55.0414L26.1126 55.0414C25.7147 55.2063 25.2769 55.2495 24.8545 55.1655C24.432 55.0815 24.044 54.8741 23.7395 54.5696C23.435 54.2651 23.2276 53.8771 23.1436 53.4547C23.0596 53.0323 23.1028 52.5945 23.2677 52.1967Z" fill="#85E36E" stroke="#427137"/>
<rect x="9.66064" y="63.3198" width="61.6608" height="4.56746" rx="2.28373" fill="#EBFAE7"/>
<rect x="9.66064" y="67.8872" width="17.5086" height="4.56746" rx="2.28373" transform="rotate(-90 9.66064 67.8872)" fill="#EBFAE7"/>
<rect x="67.5151" y="67.8872" width="17.5086" height="4.56746" rx="2.28373" transform="rotate(-90 67.5151 67.8872)" fill="#EBFAE7"/>
</svg>
