<svg width="81" height="82" viewBox="0 0 81 82" fill="none" xmlns="http://www.w3.org/2000/svg">
<mask id="path-1-inside-1_406_1344" fill="white">
<path d="M47.2758 30.619L44.6664 29.2425C42.3753 28.035 41.2297 27.4307 39.9981 27.4307C38.7664 27.4307 37.6209 28.0337 35.3298 29.2425L34.911 29.464L46.553 36.1489L51.7927 33.5137C50.9499 32.5541 49.5903 31.837 47.2758 30.6164M52.7164 35.2495L47.5002 37.8715V41.8518C47.5002 42.1125 47.3971 42.3626 47.2136 42.547C47.0301 42.7314 46.7812 42.835 46.5217 42.835C46.2621 42.835 46.0132 42.7314 45.8297 42.547C45.6462 42.3626 45.5431 42.1125 45.5431 41.8518V38.8548L40.9766 41.1491V53.525C41.9134 53.2903 42.9794 52.7292 44.6664 51.839L47.2758 50.4625C50.0822 48.9823 51.4861 48.2429 52.2663 46.9122C53.0452 45.5829 53.0452 43.9271 53.0452 40.6194V40.466C53.0452 37.9843 53.0452 36.432 52.7164 35.2495ZM39.0195 53.525V41.1491L27.2797 35.2495C26.9509 36.432 26.9509 37.9843 26.9509 40.4634V40.6168C26.9509 43.9271 26.9509 45.5829 27.7298 46.9122C28.5101 48.2429 29.9139 48.9836 32.7204 50.4638L35.3298 51.839C37.0168 52.7292 38.0828 53.2903 39.0195 53.525ZM28.2035 33.5151L39.9981 39.4408L44.4485 37.2055L32.8548 30.5482L32.7204 30.619C30.4071 31.8383 29.0463 32.5554 28.2035 33.5164"/>
</mask>
<path d="M47.2758 30.619L44.6664 29.2425C42.3753 28.035 41.2297 27.4307 39.9981 27.4307C38.7664 27.4307 37.6209 28.0337 35.3298 29.2425L34.911 29.464L46.553 36.1489L51.7927 33.5137C50.9499 32.5541 49.5903 31.837 47.2758 30.6164M52.7164 35.2495L47.5002 37.8715V41.8518C47.5002 42.1125 47.3971 42.3626 47.2136 42.547C47.0301 42.7314 46.7812 42.835 46.5217 42.835C46.2621 42.835 46.0132 42.7314 45.8297 42.547C45.6462 42.3626 45.5431 42.1125 45.5431 41.8518V38.8548L40.9766 41.1491V53.525C41.9134 53.2903 42.9794 52.7292 44.6664 51.839L47.2758 50.4625C50.0822 48.9823 51.4861 48.2429 52.2663 46.9122C53.0452 45.5829 53.0452 43.9271 53.0452 40.6194V40.466C53.0452 37.9843 53.0452 36.432 52.7164 35.2495ZM39.0195 53.525V41.1491L27.2797 35.2495C26.9509 36.432 26.9509 37.9843 26.9509 40.4634V40.6168C26.9509 43.9271 26.9509 45.5829 27.7298 46.9122C28.5101 48.2429 29.9139 48.9836 32.7204 50.4638L35.3298 51.839C37.0168 52.7292 38.0828 53.2903 39.0195 53.525ZM28.2035 33.5151L39.9981 39.4408L44.4485 37.2055L32.8548 30.5482L32.7204 30.619C30.4071 31.8383 29.0463 32.5554 28.2035 33.5164" fill="#85E36E"/>
<path d="M44.6664 29.2425L45.1329 28.358L45.1326 28.3578L44.6664 29.2425ZM35.3298 29.2425L34.8632 28.358L34.8622 28.3585L35.3298 29.2425ZM34.911 29.464L34.4434 28.5801L32.8403 29.4282L34.413 30.3312L34.911 29.464ZM46.553 36.1489L46.055 37.0161L46.5216 37.284L47.0023 37.0423L46.553 36.1489ZM51.7927 33.5137L52.242 34.4071L53.3978 33.8259L52.5441 32.8538L51.7927 33.5137ZM52.7164 35.2495L53.6799 34.9816L53.3541 33.8098L52.2673 34.356L52.7164 35.2495ZM47.5002 37.8715L47.0511 36.9781L46.5002 37.255V37.8715H47.5002ZM45.5431 38.8548H46.5431V37.2333L45.0942 37.9612L45.5431 38.8548ZM40.9766 41.1491L40.5277 40.2555L39.9766 40.5323V41.1491H40.9766ZM40.9766 53.525H39.9766V54.8064L41.2196 54.495L40.9766 53.525ZM44.6664 51.839L44.1998 50.9545L44.1997 50.9546L44.6664 51.839ZM47.2758 50.4625L46.8093 49.5779L46.8092 49.578L47.2758 50.4625ZM52.2663 46.9122L53.129 47.418L53.1291 47.4178L52.2663 46.9122ZM39.0195 53.525L38.7765 54.495L40.0195 54.8064V53.525H39.0195ZM39.0195 41.1491H40.0195V40.5324L39.4686 40.2555L39.0195 41.1491ZM27.2797 35.2495L27.7287 34.356L26.642 33.8099L26.3163 34.9816L27.2797 35.2495ZM27.7298 46.9122L26.867 47.4178L26.8672 47.418L27.7298 46.9122ZM32.7204 50.4638L32.2539 51.3483L32.2541 51.3484L32.7204 50.4638ZM35.3298 51.839L35.7965 50.9546L35.7961 50.9544L35.3298 51.839ZM39.9981 39.4408L39.5491 40.3344L39.998 40.5599L40.4469 40.3344L39.9981 39.4408ZM44.4485 37.2055L44.8973 38.0992L46.5592 37.2644L44.9464 36.3383L44.4485 37.2055ZM32.8548 30.5482L33.3527 29.681L32.8755 29.407L32.3887 29.6635L32.8548 30.5482ZM32.7204 30.619L32.2543 29.7343L32.2541 29.7344L32.7204 30.619ZM47.7424 29.7346L45.1329 28.358L44.1998 30.127L46.8092 31.5035L47.7424 29.7346ZM45.1326 28.3578C44.003 27.7625 43.0973 27.2839 42.3187 26.9604C41.5217 26.6291 40.7917 26.4307 39.9981 26.4307V28.4307C40.4361 28.4307 40.8947 28.5344 41.5512 28.8072C42.226 29.0877 43.0386 29.515 44.2001 30.1271L45.1326 28.3578ZM39.9981 26.4307C39.2048 26.4307 38.4749 26.6286 37.6776 26.9598C36.8987 27.2833 35.993 27.7619 34.8632 28.358L35.7964 30.1269C36.9577 29.5143 37.7703 29.087 38.4448 28.8068C39.101 28.5342 39.5597 28.4307 39.9981 28.4307V26.4307ZM34.8622 28.3585L34.4434 28.5801L35.3786 30.348L35.7974 30.1264L34.8622 28.3585ZM34.413 30.3312L46.055 37.0161L47.0509 35.2817L35.4089 28.5968L34.413 30.3312ZM47.0023 37.0423L52.242 34.4071L51.3434 32.6204L46.1037 35.2555L47.0023 37.0423ZM52.5441 32.8538C52.0288 32.2672 51.3836 31.787 50.61 31.3111C49.841 30.8381 48.889 30.3366 47.7422 29.7319L46.8093 31.501C47.9771 32.1168 48.8622 32.5841 49.5622 33.0147C50.2578 33.4425 50.7138 33.8007 51.0414 34.1736L52.5441 32.8538ZM52.2673 34.356L47.0511 36.9781L47.9493 38.765L53.1656 36.143L52.2673 34.356ZM46.5002 37.8715V41.8518H48.5002V37.8715H46.5002ZM46.5002 41.8518C46.5002 41.8489 46.5013 41.8451 46.5048 41.8416L47.9224 43.2524C48.2929 42.8801 48.5002 42.3762 48.5002 41.8518H46.5002ZM46.5048 41.8416C46.5084 41.8379 46.5144 41.835 46.5217 41.835V43.835C47.048 43.835 47.5517 43.6249 47.9224 43.2524L46.5048 41.8416ZM46.5217 41.835C46.5289 41.835 46.5349 41.8379 46.5385 41.8416L45.1209 43.2524C45.4916 43.6249 45.9954 43.835 46.5217 43.835V41.835ZM46.5385 41.8416C46.542 41.8451 46.5431 41.8489 46.5431 41.8518H44.5431C44.5431 42.3762 44.7504 42.8801 45.1209 43.2524L46.5385 41.8416ZM46.5431 41.8518V38.8548H44.5431V41.8518H46.5431ZM45.0942 37.9612L40.5277 40.2555L41.4256 42.0426L45.9921 39.7484L45.0942 37.9612ZM39.9766 41.1491V53.525H41.9766V41.1491H39.9766ZM41.2196 54.495C42.3018 54.2239 43.4936 53.5885 45.133 52.7234L44.1997 50.9546C42.4651 51.8699 41.525 52.3567 40.7336 52.5549L41.2196 54.495ZM45.1329 52.7235L47.7424 51.3469L46.8092 49.578L44.1998 50.9545L45.1329 52.7235ZM47.7423 51.347C49.1269 50.6167 50.2346 50.0342 51.088 49.4618C51.9626 48.875 52.6374 48.2565 53.129 47.418L51.4037 46.4064C51.1151 46.8987 50.6978 47.3152 49.9738 47.8009C49.2286 48.3008 48.2311 48.828 46.8093 49.5779L47.7423 51.347ZM53.1291 47.4178C53.6182 46.583 53.8378 45.6793 53.9431 44.6052C54.0463 43.5517 54.0452 42.2538 54.0452 40.6194H52.0452C52.0452 42.2927 52.0441 43.4765 51.9526 44.4102C51.8632 45.3232 51.6933 45.9121 51.4035 46.4067L53.1291 47.4178ZM54.0452 40.6194V40.466H52.0452V40.6194H54.0452ZM54.0452 40.466C54.0452 38.0481 54.0543 36.3281 53.6799 34.9816L51.753 35.5174C52.0362 36.536 52.0452 37.9205 52.0452 40.466H54.0452ZM40.0195 53.525V41.1491H38.0195V53.525H40.0195ZM39.4686 40.2555L27.7287 34.356L26.8307 36.143L38.5705 42.0426L39.4686 40.2555ZM26.3163 34.9816C25.9419 36.3281 25.9509 38.0481 25.9509 40.4634H27.9509C27.9509 37.9205 27.96 36.536 28.2432 35.5174L26.3163 34.9816ZM25.9509 40.4634V40.6168H27.9509V40.4634H25.9509ZM25.9509 40.6168C25.9509 42.2525 25.9498 43.551 26.0531 44.6049C26.1583 45.6793 26.3779 46.583 26.867 47.4178L28.5926 46.4067C28.3029 45.9122 28.133 45.3233 28.0435 44.4099C27.952 43.4759 27.9509 42.2914 27.9509 40.6168H25.9509ZM26.8672 47.418C27.3587 48.2563 28.0333 48.8752 28.9079 49.4622C29.7614 50.0351 30.8691 50.618 32.2539 51.3483L33.1869 49.5792C31.7652 48.8295 30.7678 48.3018 30.0226 47.8017C29.2986 47.3157 28.8812 46.8988 28.5925 46.4064L26.8672 47.418ZM32.2541 51.3484L34.8636 52.7237L35.7961 50.9544L33.1866 49.5791L32.2541 51.3484ZM34.8631 52.7234C36.5025 53.5885 37.6943 54.2239 38.7765 54.495L39.2625 52.5549C38.4712 52.3567 37.5311 51.8699 35.7965 50.9546L34.8631 52.7234ZM27.7545 34.4086L39.5491 40.3344L40.447 38.5472L28.6524 32.6215L27.7545 34.4086ZM40.4469 40.3344L44.8973 38.0992L43.9996 36.3119L39.5492 38.5472L40.4469 40.3344ZM44.9464 36.3383L33.3527 29.681L32.3568 31.4154L43.9505 38.0727L44.9464 36.3383ZM32.3887 29.6635L32.2543 29.7343L33.1865 31.5038L33.3208 31.433L32.3887 29.6635ZM32.2541 29.7344C31.1081 30.3384 30.156 30.8397 29.3867 31.3127C28.6129 31.7886 27.9671 32.2693 27.4517 32.857L28.9553 34.1758C29.2827 33.8025 29.7387 33.4441 30.4343 33.0164C31.1345 32.5858 32.0194 32.1189 33.1866 31.5037L32.2541 29.7344Z" fill="#427137" mask="url(#path-1-inside-1_406_1344)"/>
<path d="M60.5569 23.8283C64.3401 28.2342 66.5962 33.7244 67.0222 39.4811C67.1038 40.5838 66.1997 41.4815 65.0939 41.4815C63.9882 41.4815 63.1008 40.5834 63.0051 39.4818C62.5881 34.6834 60.6784 30.1165 57.5189 26.4369C53.923 22.2492 48.9461 19.4879 43.4898 18.6534C38.0336 17.8188 32.4588 18.9661 27.7756 21.8875C23.6606 24.4544 20.4731 28.2416 18.6409 32.6961C18.2202 33.7187 17.105 34.3105 16.0498 33.98C14.9946 33.6494 14.4002 32.5225 14.8077 31.4946C16.935 26.1284 20.729 21.5636 25.6563 18.4901C31.1516 15.0621 37.6929 13.7159 44.0953 14.6951C50.4976 15.6744 56.3375 18.9145 60.5569 23.8283Z" fill="#EBFAE7"/>
<path d="M20.4393 58.7228C16.6574 54.3158 14.4031 48.8248 13.9789 43.068C13.8976 41.9652 14.802 41.0678 15.9077 41.0681C17.0135 41.0685 17.9006 41.9669 17.9959 43.0685C18.4114 47.8671 20.3197 52.4346 23.4781 56.1151C27.0726 60.304 32.0487 63.0668 37.5047 63.9031C42.9607 64.7394 48.5358 63.5938 53.2199 60.6739C57.3357 58.1083 60.5244 54.322 62.3581 49.8682C62.779 48.8457 63.8945 48.2543 64.9496 48.5851C66.0046 48.916 66.5987 50.0431 66.1909 51.0709C64.0619 56.4364 60.2664 61 55.3382 64.072C49.8418 67.4982 43.3 68.8424 36.898 67.8611C30.4959 66.8799 24.6571 63.638 20.4393 58.7228Z" fill="#EBFAE7"/>
<path fill-rule="evenodd" clip-rule="evenodd" d="M57.6477 37.0513C58.4316 36.2674 59.7025 36.2674 60.4864 37.0513L65.0888 41.6537L69.6913 37.0513C70.4751 36.2674 71.7461 36.2674 72.5299 37.0513C73.3138 37.8352 73.3138 39.1061 72.5299 39.89L67.2178 45.2021C66.042 46.3779 64.1356 46.3779 62.9598 45.2021L57.6477 39.89C56.8638 39.1061 56.8638 37.8352 57.6477 37.0513Z" fill="#EBFAE7"/>
<path fill-rule="evenodd" clip-rule="evenodd" d="M23.3525 45.5008C22.5683 46.2844 21.2974 46.284 20.5138 45.4999L15.9128 40.896L11.3089 45.497C10.5248 46.2806 9.25388 46.2802 8.47025 45.4961C7.68661 44.712 7.68701 43.4411 8.47114 42.6574L13.7849 37.347C14.9611 36.1715 16.8675 36.1721 18.0429 37.3483L23.3533 42.6621C24.137 43.4462 24.1366 44.7171 23.3525 45.5008Z" fill="#EBFAE7"/>
</svg>
