<svg width="81" height="82" viewBox="0 0 81 82" fill="none" xmlns="http://www.w3.org/2000/svg">
<path d="M30.1574 68.5485C35.9426 71.5184 38.8352 73.0002 41.9452 73.0002V40.7886L11.1019 24.918C11.0571 24.9894 11.0132 25.0613 10.9701 25.1338C9 28.4 9 32.4684 9 40.6018V40.9787C9 49.1088 9 53.1772 10.9668 56.4434C12.937 59.7129 16.4819 61.5328 23.5684 65.1695L30.1574 68.5485Z" fill="#85E36E"/>
<path d="M59.7995 16.0123L53.237 12.553C47.4784 9.51877 44.5975 8 41.4999 8C38.3991 8 35.5215 9.51548 29.7596 12.553L23.1971 16.0123C16.2933 19.6494 12.7626 21.5075 10.7808 24.7098L41.4999 40.9452L72.2191 24.7131C70.2307 21.5075 66.7066 19.6494 59.7995 16.0123Z" fill="#85E36E"/>
<path d="M72.0864 25.1338C72.0435 25.0613 71.9997 24.9894 71.955 24.918L41.9453 40.7886V73.0002C44.9713 73.0002 47.7857 71.5184 53.4145 68.5485L59.8255 65.1663C66.7205 61.5296 70.1696 59.7129 72.0864 56.4434C74.0001 53.1772 74.0001 49.1088 74.0001 40.9819V40.605C74.0001 32.4716 74.0001 28.4 72.0864 25.1338Z" fill="#85E36E"/>
<path d="M52.4496 12.4224L58.8496 15.7824C65.7328 19.3952 69.176 21.2 71.0896 24.448C73 27.6928 73 31.7344 73 39.8144V40.1888C73 48.2656 73 52.3072 71.0896 55.552C69.176 58.8 65.7328 60.608 58.8496 64.2208L52.4496 67.5776C46.8304 70.5248 44.0208 72 41 72C37.9792 72 35.1696 70.528 29.5504 67.5776L23.1504 64.2176C16.2672 60.6048 12.824 58.8 10.9104 55.552C9 52.3072 9 48.2656 9 40.192V39.8176C9 31.7376 9 27.696 10.9104 24.4512C12.824 21.2032 16.2672 19.3952 23.1504 15.7856L29.5504 12.4256C35.1696 9.4752 37.9792 8 41 8C44.0208 8 46.8304 9.472 52.4496 12.4224Z" stroke="#427137" stroke-width="2" stroke-linecap="round"/>
<path d="M69.7999 25.6L56.9999 32M56.9999 32L55.3999 32.8L40.9999 40M56.9999 32V43.2M56.9999 32L26.6 16M40.9999 40L12.2 25.6M40.9999 40V70.4" stroke="#EBFAE7" stroke-width="2" stroke-linecap="round"/>
</svg>
